<?xml version="1.0" encoding="UTF-8" standalone="no"?>
<svg xmlns="http://www.w3.org/2000/svg" xmlns:xlink="http://www.w3.org/1999/xlink" contentScriptType="application/ecmascript" contentStyleType="text/css" height="1195px" preserveAspectRatio="none" style="width:879px;height:1195px;" version="1.1" viewBox="0 0 879 1195" width="879px" zoomAndPan="magnify"><defs><filter height="300%" id="f1i5scyuomjxej" width="300%" x="-1" y="-1"><feGaussianBlur result="blurOut" stdDeviation="2.0"/><feColorMatrix in="blurOut" result="blurOut2" type="matrix" values="0 0 0 0 0 0 0 0 0 0 0 0 0 0 0 0 0 0 .4 0"/><feOffset dx="4.0" dy="4.0" in="blurOut2" result="blurOut3"/><feBlend in="SourceGraphic" in2="blurOut3" mode="normal"/></filter></defs><g><!--cluster ase--><polygon fill="#FFFFFF" filter="url(#f1i5scyuomjxej)" points="250,24,284,24,291,46.2969,572,46.2969,572,190,250,190,250,24" style="stroke: #000000; stroke-width: 1.5;"/><line style="stroke: #000000; stroke-width: 1.5;" x1="250" x2="291" y1="46.2969" y2="46.2969"/><text fill="#000000" font-family="sans-serif" font-size="14" font-weight="bold" lengthAdjust="spacingAndGlyphs" textLength="28" x="254" y="38.9951">ase</text><!--cluster calculators.lammpsrun--><polygon fill="#FFFFFF" filter="url(#f1i5scyuomjxej)" points="354,67,538,67,545,89.2969,548,89.2969,548,166,354,166,354,67" style="stroke: #000000; stroke-width: 1.5;"/><line style="stroke: #000000; stroke-width: 1.5;" x1="354" x2="545" y1="89.2969" y2="89.2969"/><text fill="#000000" font-family="sans-serif" font-size="14" font-weight="bold" lengthAdjust="spacingAndGlyphs" textLength="178" x="358" y="81.9951">calculators.lammpsrun</text><!--class Atoms--><rect fill="#FEFECE" filter="url(#f1i5scyuomjxej)" height="48" id="Atoms" style="stroke: #A80036; stroke-width: 1.5;" width="71" x="266.5" y="102"/><ellipse cx="281.5" cy="118" fill="#ADD1B2" rx="11" ry="11" style="stroke: #A80036; stroke-width: 1.0;"/><path d="M283.8438,113.6719 L284.0156,113.75 C284.2344,113.4375 284.4375,113.3438 284.7344,113.3438 C285.0313,113.3438 285.3125,113.4844 285.4688,113.75 C285.5625,113.9063 285.5781,114.0313 285.5781,114.4688 L285.5781,115.8906 C285.5781,116.3125 285.5469,116.5 285.4375,116.6563 C285.2656,116.875 285,117.0156 284.7344,117.0156 C284.5156,117.0156 284.2813,116.9063 284.1406,116.7656 C284,116.6406 283.9688,116.5156 283.9063,116.1094 C283.8125,115.7031 283.6406,115.4844 283.1563,115.2031 C282.6875,114.9531 282.0781,114.7969 281.5,114.7969 C279.7656,114.7969 278.5156,116.1094 278.5156,117.8906 L278.5156,118.9844 C278.5156,120.6875 279.8125,121.7813 281.8594,121.7813 C282.625,121.7813 283.3125,121.6563 283.7344,121.3906 C283.9219,121.2969 283.9219,121.2969 284.375,120.8125 C284.5625,120.625 284.7656,120.5469 284.9844,120.5469 C285.4531,120.5469 285.8438,120.9375 285.8438,121.3906 C285.8438,121.7813 285.5156,122.2344 284.9375,122.6406 C284.1875,123.1875 283.0313,123.4844 281.8125,123.4844 C278.9219,123.4844 276.8125,121.5938 276.8125,119.0156 L276.8125,117.8906 C276.8125,115.1719 278.8125,113.0938 281.4375,113.0938 C282.3125,113.0938 282.9063,113.2344 283.8438,113.6719 Z "/><text fill="#000000" font-family="sans-serif" font-size="12" lengthAdjust="spacingAndGlyphs" textLength="39" x="295.5" y="122.1543">Atoms</text><line style="stroke: #A80036; stroke-width: 1.5;" x1="267.5" x2="336.5" y1="134" y2="134"/><line style="stroke: #A80036; stroke-width: 1.5;" x1="267.5" x2="336.5" y1="142" y2="142"/><!--class Prism--><rect fill="#FEFECE" filter="url(#f1i5scyuomjxej)" height="48" id="Prism" style="stroke: #A80036; stroke-width: 1.5;" width="66" x="466" y="102"/><ellipse cx="481" cy="118" fill="#ADD1B2" rx="11" ry="11" style="stroke: #A80036; stroke-width: 1.0;"/><path d="M483.3438,113.6719 L483.5156,113.75 C483.7344,113.4375 483.9375,113.3438 484.2344,113.3438 C484.5313,113.3438 484.8125,113.4844 484.9688,113.75 C485.0625,113.9063 485.0781,114.0313 485.0781,114.4688 L485.0781,115.8906 C485.0781,116.3125 485.0469,116.5 484.9375,116.6563 C484.7656,116.875 484.5,117.0156 484.2344,117.0156 C484.0156,117.0156 483.7813,116.9063 483.6406,116.7656 C483.5,116.6406 483.4688,116.5156 483.4063,116.1094 C483.3125,115.7031 483.1406,115.4844 482.6563,115.2031 C482.1875,114.9531 481.5781,114.7969 481,114.7969 C479.2656,114.7969 478.0156,116.1094 478.0156,117.8906 L478.0156,118.9844 C478.0156,120.6875 479.3125,121.7813 481.3594,121.7813 C482.125,121.7813 482.8125,121.6563 483.2344,121.3906 C483.4219,121.2969 483.4219,121.2969 483.875,120.8125 C484.0625,120.625 484.2656,120.5469 484.4844,120.5469 C484.9531,120.5469 485.3438,120.9375 485.3438,121.3906 C485.3438,121.7813 485.0156,122.2344 484.4375,122.6406 C483.6875,123.1875 482.5313,123.4844 481.3125,123.4844 C478.4219,123.4844 476.3125,121.5938 476.3125,119.0156 L476.3125,117.8906 C476.3125,115.1719 478.3125,113.0938 480.9375,113.0938 C481.8125,113.0938 482.4063,113.2344 483.3438,113.6719 Z "/><text fill="#000000" font-family="sans-serif" font-size="12" lengthAdjust="spacingAndGlyphs" textLength="34" x="495" y="122.1543">Prism</text><line style="stroke: #A80036; stroke-width: 1.5;" x1="467" x2="531" y1="134" y2="134"/><line style="stroke: #A80036; stroke-width: 1.5;" x1="467" x2="531" y1="142" y2="142"/><!--class BondedAtoms--><rect fill="#FEFECE" filter="url(#f1i5scyuomjxej)" height="137.6328" id="BondedAtoms" style="stroke: #A80036; stroke-width: 1.5;" width="165" x="219.5" y="210"/><ellipse cx="255.2" cy="226" fill="#ADD1B2" rx="11" ry="11" style="stroke: #A80036; stroke-width: 1.0;"/><path d="M257.5438,221.6719 L257.7156,221.75 C257.9344,221.4375 258.1375,221.3438 258.4344,221.3438 C258.7313,221.3438 259.0125,221.4844 259.1688,221.75 C259.2625,221.9063 259.2781,222.0313 259.2781,222.4688 L259.2781,223.8906 C259.2781,224.3125 259.2469,224.5 259.1375,224.6563 C258.9656,224.875 258.7,225.0156 258.4344,225.0156 C258.2156,225.0156 257.9813,224.9063 257.8406,224.7656 C257.7,224.6406 257.6688,224.5156 257.6063,224.1094 C257.5125,223.7031 257.3406,223.4844 256.8563,223.2031 C256.3875,222.9531 255.7781,222.7969 255.2,222.7969 C253.4656,222.7969 252.2156,224.1094 252.2156,225.8906 L252.2156,226.9844 C252.2156,228.6875 253.5125,229.7813 255.5594,229.7813 C256.325,229.7813 257.0125,229.6563 257.4344,229.3906 C257.6219,229.2969 257.6219,229.2969 258.075,228.8125 C258.2625,228.625 258.4656,228.5469 258.6844,228.5469 C259.1531,228.5469 259.5438,228.9375 259.5438,229.3906 C259.5438,229.7813 259.2156,230.2344 258.6375,230.6406 C257.8875,231.1875 256.7313,231.4844 255.5125,231.4844 C252.6219,231.4844 250.5125,229.5938 250.5125,227.0156 L250.5125,225.8906 C250.5125,223.1719 252.5125,221.0938 255.1375,221.0938 C256.0125,221.0938 256.6063,221.2344 257.5438,221.6719 Z "/><text fill="#000000" font-family="sans-serif" font-size="12" lengthAdjust="spacingAndGlyphs" textLength="87" x="273.8" y="230.1543">BondedAtoms</text><line style="stroke: #A80036; stroke-width: 1.5;" x1="220.5" x2="383.5" y1="242" y2="242"/><line style="stroke: #A80036; stroke-width: 1.5;" x1="220.5" x2="383.5" y1="250" y2="250"/><ellipse cx="230.5" cy="261.9023" fill="#84BE84" rx="3" ry="3" style="stroke: #038048; stroke-width: 1.0;"/><text fill="#000000" font-family="sans-serif" font-size="11" lengthAdjust="spacingAndGlyphs" text-decoration="underline" textLength="44" x="239.5" y="264.2104">inherit()</text><line style="stroke: #000000; stroke-width: 1.0;" x1="239.5" x2="283.5" y1="266.2104" y2="266.2104"/><ellipse cx="230.5" cy="274.707" fill="#84BE84" rx="3" ry="3" style="stroke: #038048; stroke-width: 1.0;"/><text fill="#000000" font-family="sans-serif" font-size="11" lengthAdjust="spacingAndGlyphs" textLength="63" x="239.5" y="277.0151">add_bond()</text><ellipse cx="230.5" cy="287.5117" fill="#84BE84" rx="3" ry="3" style="stroke: #038048; stroke-width: 1.0;"/><text fill="#000000" font-family="sans-serif" font-size="11" lengthAdjust="spacingAndGlyphs" textLength="85" x="239.5" y="289.8198">remove_bond()</text><ellipse cx="230.5" cy="300.3164" fill="#84BE84" rx="3" ry="3" style="stroke: #038048; stroke-width: 1.0;"/><text fill="#000000" font-family="sans-serif" font-size="11" lengthAdjust="spacingAndGlyphs" textLength="115" x="239.5" y="302.6245">get_bonded_bonds()</text><ellipse cx="230.5" cy="313.1211" fill="#84BE84" rx="3" ry="3" style="stroke: #038048; stroke-width: 1.0;"/><text fill="#000000" font-family="sans-serif" font-size="11" lengthAdjust="spacingAndGlyphs" textLength="118" x="239.5" y="315.4292">get_bonded_angles()</text><ellipse cx="230.5" cy="325.9258" fill="#84BE84" rx="3" ry="3" style="stroke: #038048; stroke-width: 1.0;"/><text fill="#000000" font-family="sans-serif" font-size="11" lengthAdjust="spacingAndGlyphs" textLength="133" x="239.5" y="328.2339">get_bonded_dihedrals()</text><ellipse cx="230.5" cy="338.7305" fill="#84BE84" rx="3" ry="3" style="stroke: #038048; stroke-width: 1.0;"/><text fill="#000000" font-family="sans-serif" font-size="11" lengthAdjust="spacingAndGlyphs" textLength="139" x="239.5" y="341.0386">get_bonded_impropers()</text><path d="M6,266.5 L6,291.6328 A0,0 0 0 0 6,291.6328 L184,291.6328 A0,0 0 0 0 184,291.6328 L184,284.5 L219.277,279 L184,276.5 L184,276.5 L174,266.5 L6,266.5 A0,0 0 0 0 6,266.5 " fill="#FBFB77" filter="url(#f1i5scyuomjxej)" style="stroke: #A80036; stroke-width: 1.0;"/><path d="M174,266.5 L174,276.5 L184,276.5 L174,266.5 " fill="#FBFB77" style="stroke: #A80036; stroke-width: 1.0;"/><text fill="#000000" font-family="sans-serif" font-size="13" lengthAdjust="spacingAndGlyphs" textLength="157" x="12" y="283.5669">Has ASE's functionalities</text><!--class ExtendedPrism--><rect fill="#FEFECE" filter="url(#f1i5scyuomjxej)" height="60.8047" id="ExtendedPrism" style="stroke: #A80036; stroke-width: 1.5;" width="160" x="420" y="248.5"/><ellipse cx="450.75" cy="264.5" fill="#ADD1B2" rx="11" ry="11" style="stroke: #A80036; stroke-width: 1.0;"/><path d="M453.0938,260.1719 L453.2656,260.25 C453.4844,259.9375 453.6875,259.8438 453.9844,259.8438 C454.2813,259.8438 454.5625,259.9844 454.7188,260.25 C454.8125,260.4063 454.8281,260.5313 454.8281,260.9688 L454.8281,262.3906 C454.8281,262.8125 454.7969,263 454.6875,263.1563 C454.5156,263.375 454.25,263.5156 453.9844,263.5156 C453.7656,263.5156 453.5313,263.4063 453.3906,263.2656 C453.25,263.1406 453.2188,263.0156 453.1563,262.6094 C453.0625,262.2031 452.8906,261.9844 452.4063,261.7031 C451.9375,261.4531 451.3281,261.2969 450.75,261.2969 C449.0156,261.2969 447.7656,262.6094 447.7656,264.3906 L447.7656,265.4844 C447.7656,267.1875 449.0625,268.2813 451.1094,268.2813 C451.875,268.2813 452.5625,268.1563 452.9844,267.8906 C453.1719,267.7969 453.1719,267.7969 453.625,267.3125 C453.8125,267.125 454.0156,267.0469 454.2344,267.0469 C454.7031,267.0469 455.0938,267.4375 455.0938,267.8906 C455.0938,268.2813 454.7656,268.7344 454.1875,269.1406 C453.4375,269.6875 452.2813,269.9844 451.0625,269.9844 C448.1719,269.9844 446.0625,268.0938 446.0625,265.5156 L446.0625,264.3906 C446.0625,261.6719 448.0625,259.5938 450.6875,259.5938 C451.5625,259.5938 452.1563,259.7344 453.0938,260.1719 Z "/><text fill="#000000" font-family="sans-serif" font-size="12" lengthAdjust="spacingAndGlyphs" textLength="93" x="468.25" y="268.6543">ExtendedPrism</text><line style="stroke: #A80036; stroke-width: 1.5;" x1="421" x2="579" y1="280.5" y2="280.5"/><line style="stroke: #A80036; stroke-width: 1.5;" x1="421" x2="579" y1="288.5" y2="288.5"/><ellipse cx="431" cy="300.4023" fill="#84BE84" rx="3" ry="3" style="stroke: #038048; stroke-width: 1.0;"/><text fill="#000000" font-family="sans-serif" font-size="11" lengthAdjust="spacingAndGlyphs" textLength="134" x="440" y="302.7104">transform_to_lammps()</text><!--class LammpsWriter--><rect fill="#FEFECE" filter="url(#f1i5scyuomjxej)" height="393.7266" id="LammpsWriter" style="stroke: #A80036; stroke-width: 1.5;" width="255" x="273.5" y="408"/><ellipse cx="352.75" cy="424" fill="#ADD1B2" rx="11" ry="11" style="stroke: #A80036; stroke-width: 1.0;"/><path d="M355.0938,419.6719 L355.2656,419.75 C355.4844,419.4375 355.6875,419.3438 355.9844,419.3438 C356.2813,419.3438 356.5625,419.4844 356.7188,419.75 C356.8125,419.9063 356.8281,420.0313 356.8281,420.4688 L356.8281,421.8906 C356.8281,422.3125 356.7969,422.5 356.6875,422.6563 C356.5156,422.875 356.25,423.0156 355.9844,423.0156 C355.7656,423.0156 355.5313,422.9063 355.3906,422.7656 C355.25,422.6406 355.2188,422.5156 355.1563,422.1094 C355.0625,421.7031 354.8906,421.4844 354.4063,421.2031 C353.9375,420.9531 353.3281,420.7969 352.75,420.7969 C351.0156,420.7969 349.7656,422.1094 349.7656,423.8906 L349.7656,424.9844 C349.7656,426.6875 351.0625,427.7813 353.1094,427.7813 C353.875,427.7813 354.5625,427.6563 354.9844,427.3906 C355.1719,427.2969 355.1719,427.2969 355.625,426.8125 C355.8125,426.625 356.0156,426.5469 356.2344,426.5469 C356.7031,426.5469 357.0938,426.9375 357.0938,427.3906 C357.0938,427.7813 356.7656,428.2344 356.1875,428.6406 C355.4375,429.1875 354.2813,429.4844 353.0625,429.4844 C350.1719,429.4844 348.0625,427.5938 348.0625,425.0156 L348.0625,423.8906 C348.0625,421.1719 350.0625,419.0938 352.6875,419.0938 C353.5625,419.0938 354.1563,419.2344 355.0938,419.6719 Z "/><text fill="#000000" font-family="sans-serif" font-size="12" lengthAdjust="spacingAndGlyphs" textLength="88" x="373.25" y="428.1543">LammpsWriter</text><line style="stroke: #A80036; stroke-width: 1.5;" x1="274.5" x2="527.5" y1="440" y2="440"/><rect fill="none" height="6" style="stroke: #C82930; stroke-width: 1.0;" width="6" x="281.5" y="448.9023"/><text fill="#000000" font-family="sans-serif" font-size="11" lengthAdjust="spacingAndGlyphs" textLength="164" x="293.5" y="454.2104">LammpsAtoms :: lmp_atoms</text><rect fill="none" height="6" style="stroke: #C82930; stroke-width: 1.0;" width="6" x="281.5" y="461.707"/><text fill="#000000" font-family="sans-serif" font-size="11" lengthAdjust="spacingAndGlyphs" textLength="126" x="293.5" y="467.0151">LammpsBonds :: topo</text><rect fill="none" height="6" style="stroke: #C82930; stroke-width: 1.0;" width="6" x="281.5" y="474.5117"/><text fill="#000000" font-family="sans-serif" font-size="11" lengthAdjust="spacingAndGlyphs" textLength="128" x="293.5" y="479.8198">LammpsAngles :: topo</text><rect fill="none" height="6" style="stroke: #C82930; stroke-width: 1.0;" width="6" x="281.5" y="487.3164"/><text fill="#000000" font-family="sans-serif" font-size="11" lengthAdjust="spacingAndGlyphs" textLength="144" x="293.5" y="492.6245">LammpsDihedrals :: topo</text><rect fill="none" height="6" style="stroke: #C82930; stroke-width: 1.0;" width="6" x="281.5" y="500.1211"/><text fill="#000000" font-family="sans-serif" font-size="11" lengthAdjust="spacingAndGlyphs" textLength="149" x="293.5" y="505.4292">LammpsImpropers :: topo</text><line style="stroke: #A80036; stroke-width: 1.5;" x1="274.5" x2="527.5" y1="512.0234" y2="512.0234"/><ellipse cx="284.5" cy="523.9258" fill="#84BE84" rx="3" ry="3" style="stroke: #038048; stroke-width: 1.0;"/><text fill="#000000" font-family="sans-serif" font-size="11" lengthAdjust="spacingAndGlyphs" textLength="150" x="293.5" y="526.2339">get_required_datanames()</text><ellipse cx="284.5" cy="536.7305" fill="#84BE84" rx="3" ry="3" style="stroke: #038048; stroke-width: 1.0;"/><text fill="#000000" font-family="sans-serif" font-size="11" lengthAdjust="spacingAndGlyphs" textLength="229" x="293.5" y="539.0386">get_required_datanames_for_molecule()</text><ellipse cx="284.5" cy="549.5352" fill="#84BE84" rx="3" ry="3" style="stroke: #038048; stroke-width: 1.0;"/><text fill="#000000" font-family="sans-serif" font-size="11" lengthAdjust="spacingAndGlyphs" textLength="141" x="293.5" y="551.8433">get_sequence_patterns()</text><ellipse cx="284.5" cy="562.3398" fill="#84BE84" rx="3" ry="3" style="stroke: #038048; stroke-width: 1.0;"/><text fill="#000000" font-family="sans-serif" font-size="11" lengthAdjust="spacingAndGlyphs" textLength="114" x="293.5" y="564.6479">get_bond_patterns()</text><ellipse cx="284.5" cy="575.1445" fill="#84BE84" rx="3" ry="3" style="stroke: #038048; stroke-width: 1.0;"/><text fill="#000000" font-family="sans-serif" font-size="11" lengthAdjust="spacingAndGlyphs" textLength="117" x="293.5" y="577.4526">get_angle_patterns()</text><ellipse cx="284.5" cy="587.9492" fill="#84BE84" rx="3" ry="3" style="stroke: #038048; stroke-width: 1.0;"/><text fill="#000000" font-family="sans-serif" font-size="11" lengthAdjust="spacingAndGlyphs" textLength="132" x="293.5" y="590.2573">get_dihedral_patterns()</text><ellipse cx="284.5" cy="600.7539" fill="#84BE84" rx="3" ry="3" style="stroke: #038048; stroke-width: 1.0;"/><text fill="#000000" font-family="sans-serif" font-size="11" lengthAdjust="spacingAndGlyphs" textLength="138" x="293.5" y="603.062">get_improper_patterns()</text><ellipse cx="284.5" cy="613.5586" fill="#84BE84" rx="3" ry="3" style="stroke: #038048; stroke-width: 1.0;"/><text fill="#000000" font-family="sans-serif" font-size="11" lengthAdjust="spacingAndGlyphs" textLength="148" x="293.5" y="615.8667">get_maximum_per_atom()</text><ellipse cx="284.5" cy="626.3633" fill="#84BE84" rx="3" ry="3" style="stroke: #038048; stroke-width: 1.0;"/><text fill="#000000" font-family="sans-serif" font-size="11" lengthAdjust="spacingAndGlyphs" textLength="157" x="293.5" y="628.6714">get_max_bonds_per_atom()</text><ellipse cx="284.5" cy="639.168" fill="#84BE84" rx="3" ry="3" style="stroke: #038048; stroke-width: 1.0;"/><text fill="#000000" font-family="sans-serif" font-size="11" lengthAdjust="spacingAndGlyphs" textLength="160" x="293.5" y="641.4761">get_max_angles_per_atom()</text><ellipse cx="284.5" cy="651.9727" fill="#84BE84" rx="3" ry="3" style="stroke: #038048; stroke-width: 1.0;"/><text fill="#000000" font-family="sans-serif" font-size="11" lengthAdjust="spacingAndGlyphs" textLength="175" x="293.5" y="654.2808">get_max_dihedrals_per_atom()</text><ellipse cx="284.5" cy="664.7773" fill="#84BE84" rx="3" ry="3" style="stroke: #038048; stroke-width: 1.0;"/><text fill="#000000" font-family="sans-serif" font-size="11" lengthAdjust="spacingAndGlyphs" textLength="181" x="293.5" y="667.0854">get_max_impropers_per_atom()</text><ellipse cx="284.5" cy="677.582" fill="#84BE84" rx="3" ry="3" style="stroke: #038048; stroke-width: 1.0;"/><text fill="#000000" font-family="sans-serif" font-size="11" lengthAdjust="spacingAndGlyphs" textLength="92" x="293.5" y="679.8901">set_atom_data()</text><ellipse cx="284.5" cy="690.3867" fill="#84BE84" rx="3" ry="3" style="stroke: #038048; stroke-width: 1.0;"/><text fill="#000000" font-family="sans-serif" font-size="11" lengthAdjust="spacingAndGlyphs" textLength="98" x="293.5" y="692.6948">set_atom_types()</text><ellipse cx="284.5" cy="703.1914" fill="#84BE84" rx="3" ry="3" style="stroke: #038048; stroke-width: 1.0;"/><text fill="#000000" font-family="sans-serif" font-size="11" lengthAdjust="spacingAndGlyphs" textLength="78" x="293.5" y="705.4995">set_masses()</text><ellipse cx="284.5" cy="715.9961" fill="#84BE84" rx="3" ry="3" style="stroke: #038048; stroke-width: 1.0;"/><text fill="#000000" font-family="sans-serif" font-size="11" lengthAdjust="spacingAndGlyphs" textLength="117" x="293.5" y="718.3042">set_topology_types()</text><ellipse cx="284.5" cy="728.8008" fill="#84BE84" rx="3" ry="3" style="stroke: #038048; stroke-width: 1.0;"/><text fill="#000000" font-family="sans-serif" font-size="11" lengthAdjust="spacingAndGlyphs" textLength="97" x="293.5" y="731.1089">set_bond_types()</text><ellipse cx="284.5" cy="741.6055" fill="#84BE84" rx="3" ry="3" style="stroke: #038048; stroke-width: 1.0;"/><text fill="#000000" font-family="sans-serif" font-size="11" lengthAdjust="spacingAndGlyphs" textLength="100" x="293.5" y="743.9136">set_angle_types()</text><ellipse cx="284.5" cy="754.4102" fill="#84BE84" rx="3" ry="3" style="stroke: #038048; stroke-width: 1.0;"/><text fill="#000000" font-family="sans-serif" font-size="11" lengthAdjust="spacingAndGlyphs" textLength="115" x="293.5" y="756.7183">set_dihedral_types()</text><ellipse cx="284.5" cy="767.2148" fill="#84BE84" rx="3" ry="3" style="stroke: #038048; stroke-width: 1.0;"/><text fill="#000000" font-family="sans-serif" font-size="11" lengthAdjust="spacingAndGlyphs" textLength="121" x="293.5" y="769.5229">set_improper_types()</text><ellipse cx="284.5" cy="780.0195" fill="#84BE84" rx="3" ry="3" style="stroke: #038048; stroke-width: 1.0;"/><text fill="#000000" font-family="sans-serif" font-size="11" lengthAdjust="spacingAndGlyphs" textLength="119" x="293.5" y="782.3276">write_lammps_data()</text><ellipse cx="284.5" cy="792.8242" fill="#84BE84" rx="3" ry="3" style="stroke: #038048; stroke-width: 1.0;"/><text fill="#000000" font-family="sans-serif" font-size="11" lengthAdjust="spacingAndGlyphs" textLength="145" x="293.5" y="795.1323">write_lammps_molecule()</text><!--class LammpsAtoms--><rect fill="#FEFECE" filter="url(#f1i5scyuomjxej)" height="124.8281" id="LammpsAtoms" style="stroke: #A80036; stroke-width: 1.5;" width="176" x="44" y="881"/><ellipse cx="83.3" cy="897" fill="#ADD1B2" rx="11" ry="11" style="stroke: #A80036; stroke-width: 1.0;"/><path d="M85.6438,892.6719 L85.8156,892.75 C86.0344,892.4375 86.2375,892.3438 86.5344,892.3438 C86.8313,892.3438 87.1125,892.4844 87.2688,892.75 C87.3625,892.9063 87.3781,893.0313 87.3781,893.4688 L87.3781,894.8906 C87.3781,895.3125 87.3469,895.5 87.2375,895.6563 C87.0656,895.875 86.8,896.0156 86.5344,896.0156 C86.3156,896.0156 86.0813,895.9063 85.9406,895.7656 C85.8,895.6406 85.7688,895.5156 85.7063,895.1094 C85.6125,894.7031 85.4406,894.4844 84.9563,894.2031 C84.4875,893.9531 83.8781,893.7969 83.3,893.7969 C81.5656,893.7969 80.3156,895.1094 80.3156,896.8906 L80.3156,897.9844 C80.3156,899.6875 81.6125,900.7813 83.6594,900.7813 C84.425,900.7813 85.1125,900.6563 85.5344,900.3906 C85.7219,900.2969 85.7219,900.2969 86.175,899.8125 C86.3625,899.625 86.5656,899.5469 86.7844,899.5469 C87.2531,899.5469 87.6438,899.9375 87.6438,900.3906 C87.6438,900.7813 87.3156,901.2344 86.7375,901.6406 C85.9875,902.1875 84.8313,902.4844 83.6125,902.4844 C80.7219,902.4844 78.6125,900.5938 78.6125,898.0156 L78.6125,896.8906 C78.6125,894.1719 80.6125,892.0938 83.2375,892.0938 C84.1125,892.0938 84.7063,892.2344 85.6438,892.6719 Z "/><text fill="#000000" font-family="sans-serif" font-size="12" lengthAdjust="spacingAndGlyphs" textLength="90" x="102.7" y="901.1543">LammpsAtoms</text><line style="stroke: #A80036; stroke-width: 1.5;" x1="45" x2="219" y1="913" y2="913"/><line style="stroke: #A80036; stroke-width: 1.5;" x1="45" x2="219" y1="921" y2="921"/><polygon fill="#FFFF44" points="55,927.9023,59,931.9023,55,935.9023,51,931.9023" style="stroke: #B38D22; stroke-width: 1.0;"/><text fill="#000000" font-family="sans-serif" font-size="11" lengthAdjust="spacingAndGlyphs" textLength="57" x="64" y="935.2104">get_num()</text><polygon fill="#FFFF44" points="55,940.707,59,944.707,55,948.707,51,944.707" style="stroke: #B38D22; stroke-width: 1.0;"/><text fill="#000000" font-family="sans-serif" font-size="11" lengthAdjust="spacingAndGlyphs" textLength="87" x="64" y="948.0151">get_num_type()</text><polygon fill="#FFFF44" points="55,953.5117,59,957.5117,55,961.5117,51,957.5117" style="stroke: #B38D22; stroke-width: 1.0;"/><text fill="#000000" font-family="sans-serif" font-size="11" lengthAdjust="spacingAndGlyphs" textLength="150" x="64" y="960.8198">get_required_datanames()</text><polygon fill="#FFFF44" points="55,966.3164,59,970.3164,55,974.3164,51,970.3164" style="stroke: #B38D22; stroke-width: 1.0;"/><text fill="#000000" font-family="sans-serif" font-size="11" lengthAdjust="spacingAndGlyphs" textLength="57" x="64" y="973.6245">set_data()</text><polygon fill="#FFFF44" points="55,979.1211,59,983.1211,55,987.1211,51,983.1211" style="stroke: #B38D22; stroke-width: 1.0;"/><text fill="#000000" font-family="sans-serif" font-size="11" lengthAdjust="spacingAndGlyphs" textLength="69" x="64" y="986.4292">write_lines()</text><polygon fill="#FFFF44" points="55,991.9258,59,995.9258,55,999.9258,51,995.9258" style="stroke: #B38D22; stroke-width: 1.0;"/><text fill="#000000" font-family="sans-serif" font-size="11" lengthAdjust="spacingAndGlyphs" textLength="148" x="64" y="999.2339">write_lines_for_molecule()</text><!--class LammpsTopology--><rect fill="#FEFECE" filter="url(#f1i5scyuomjxej)" height="163.2422" id="LammpsTopology" style="stroke: #A80036; stroke-width: 1.5;" width="174" x="314" y="862"/><ellipse cx="344.75" cy="878" fill="#ADD1B2" rx="11" ry="11" style="stroke: #A80036; stroke-width: 1.0;"/><path d="M347.0938,873.6719 L347.2656,873.75 C347.4844,873.4375 347.6875,873.3438 347.9844,873.3438 C348.2813,873.3438 348.5625,873.4844 348.7188,873.75 C348.8125,873.9063 348.8281,874.0313 348.8281,874.4688 L348.8281,875.8906 C348.8281,876.3125 348.7969,876.5 348.6875,876.6563 C348.5156,876.875 348.25,877.0156 347.9844,877.0156 C347.7656,877.0156 347.5313,876.9063 347.3906,876.7656 C347.25,876.6406 347.2188,876.5156 347.1563,876.1094 C347.0625,875.7031 346.8906,875.4844 346.4063,875.2031 C345.9375,874.9531 345.3281,874.7969 344.75,874.7969 C343.0156,874.7969 341.7656,876.1094 341.7656,877.8906 L341.7656,878.9844 C341.7656,880.6875 343.0625,881.7813 345.1094,881.7813 C345.875,881.7813 346.5625,881.6563 346.9844,881.3906 C347.1719,881.2969 347.1719,881.2969 347.625,880.8125 C347.8125,880.625 348.0156,880.5469 348.2344,880.5469 C348.7031,880.5469 349.0938,880.9375 349.0938,881.3906 C349.0938,881.7813 348.7656,882.2344 348.1875,882.6406 C347.4375,883.1875 346.2813,883.4844 345.0625,883.4844 C342.1719,883.4844 340.0625,881.5938 340.0625,879.0156 L340.0625,877.8906 C340.0625,875.1719 342.0625,873.0938 344.6875,873.0938 C345.5625,873.0938 346.1563,873.2344 347.0938,873.6719 Z "/><text fill="#000000" font-family="sans-serif" font-size="12" lengthAdjust="spacingAndGlyphs" textLength="107" x="362.25" y="882.1543">LammpsTopology</text><line style="stroke: #A80036; stroke-width: 1.5;" x1="315" x2="487" y1="894" y2="894"/><rect fill="none" height="6" style="stroke: #C82930; stroke-width: 1.0;" width="6" x="322" y="902.9023"/><text fill="#000000" font-family="sans-serif" font-size="11" lengthAdjust="spacingAndGlyphs" textLength="27" x="334" y="908.2104">lines</text><line style="stroke: #A80036; stroke-width: 1.5;" x1="315" x2="487" y1="914.8047" y2="914.8047"/><polygon fill="#FFFF44" points="325,921.707,329,925.707,325,929.707,321,925.707" style="stroke: #B38D22; stroke-width: 1.0;"/><text fill="#000000" font-family="sans-serif" font-size="11" lengthAdjust="spacingAndGlyphs" text-decoration="underline" textLength="44" x="334" y="929.0151">create()</text><line style="stroke: #000000; stroke-width: 1.0;" x1="334" x2="378" y1="931.0151" y2="931.0151"/><polygon fill="#FFFF44" points="325,934.5117,329,938.5117,325,942.5117,321,938.5117" style="stroke: #B38D22; stroke-width: 1.0;"/><text fill="#000000" font-family="sans-serif" font-size="11" lengthAdjust="spacingAndGlyphs" textLength="57" x="334" y="941.8198">get_num()</text><polygon fill="#FFFF44" points="325,947.3164,329,951.3164,325,955.3164,321,951.3164" style="stroke: #B38D22; stroke-width: 1.0;"/><text fill="#000000" font-family="sans-serif" font-size="11" lengthAdjust="spacingAndGlyphs" textLength="87" x="334" y="954.6245">get_num_type()</text><polygon fill="#FFFF44" points="325,960.1211,329,964.1211,325,968.1211,321,964.1211" style="stroke: #B38D22; stroke-width: 1.0;"/><text fill="#000000" font-family="sans-serif" font-size="11" lengthAdjust="spacingAndGlyphs" textLength="141" x="334" y="967.4292">get_sequence_patterns()</text><polygon fill="#FFFF44" points="325,972.9258,329,976.9258,325,980.9258,321,976.9258" style="stroke: #B38D22; stroke-width: 1.0;"/><text fill="#000000" font-family="sans-serif" font-size="11" lengthAdjust="spacingAndGlyphs" textLength="148" x="334" y="980.2339">get_maximum_per_atom()</text><polygon fill="#FFFF44" points="325,985.7305,329,989.7305,325,993.7305,321,989.7305" style="stroke: #B38D22; stroke-width: 1.0;"/><text fill="#000000" font-family="sans-serif" font-size="11" lengthAdjust="spacingAndGlyphs" textLength="63" x="334" y="993.0386">set_types()</text><polygon fill="#FFFF44" points="325,998.5352,329,1002.5352,325,1006.5352,321,1002.5352" style="stroke: #B38D22; stroke-width: 1.0;"/><text fill="#000000" font-family="sans-serif" font-size="11" lengthAdjust="spacingAndGlyphs" textLength="69" x="334" y="1005.8433">write_lines()</text><rect fill="#F24D5C" height="6" style="stroke: #C82930; stroke-width: 1.0;" width="6" x="322" y="1013.3398"/><text fill="#000000" font-family="sans-serif" font-size="11" lengthAdjust="spacingAndGlyphs" textLength="136" x="334" y="1018.6479">make_full_seq_to_type()</text><!--class LammpsBonds--><rect fill="#FEFECE" filter="url(#f1i5scyuomjxej)" height="48" id="LammpsBonds" style="stroke: #A80036; stroke-width: 1.5;" width="122" x="211" y="1110.5"/><ellipse cx="226" cy="1126.5" fill="#ADD1B2" rx="11" ry="11" style="stroke: #A80036; stroke-width: 1.0;"/><path d="M228.3438,1122.1719 L228.5156,1122.25 C228.7344,1121.9375 228.9375,1121.8438 229.2344,1121.8438 C229.5313,1121.8438 229.8125,1121.9844 229.9688,1122.25 C230.0625,1122.4063 230.0781,1122.5313 230.0781,1122.9688 L230.0781,1124.3906 C230.0781,1124.8125 230.0469,1125 229.9375,1125.1563 C229.7656,1125.375 229.5,1125.5156 229.2344,1125.5156 C229.0156,1125.5156 228.7813,1125.4063 228.6406,1125.2656 C228.5,1125.1406 228.4688,1125.0156 228.4063,1124.6094 C228.3125,1124.2031 228.1406,1123.9844 227.6563,1123.7031 C227.1875,1123.4531 226.5781,1123.2969 226,1123.2969 C224.2656,1123.2969 223.0156,1124.6094 223.0156,1126.3906 L223.0156,1127.4844 C223.0156,1129.1875 224.3125,1130.2813 226.3594,1130.2813 C227.125,1130.2813 227.8125,1130.1563 228.2344,1129.8906 C228.4219,1129.7969 228.4219,1129.7969 228.875,1129.3125 C229.0625,1129.125 229.2656,1129.0469 229.4844,1129.0469 C229.9531,1129.0469 230.3438,1129.4375 230.3438,1129.8906 C230.3438,1130.2813 230.0156,1130.7344 229.4375,1131.1406 C228.6875,1131.6875 227.5313,1131.9844 226.3125,1131.9844 C223.4219,1131.9844 221.3125,1130.0938 221.3125,1127.5156 L221.3125,1126.3906 C221.3125,1123.6719 223.3125,1121.5938 225.9375,1121.5938 C226.8125,1121.5938 227.4063,1121.7344 228.3438,1122.1719 Z "/><text fill="#000000" font-family="sans-serif" font-size="12" lengthAdjust="spacingAndGlyphs" textLength="90" x="240" y="1130.6543">LammpsBonds</text><line style="stroke: #A80036; stroke-width: 1.5;" x1="212" x2="332" y1="1142.5" y2="1142.5"/><line style="stroke: #A80036; stroke-width: 1.5;" x1="212" x2="332" y1="1150.5" y2="1150.5"/><!--class LammpsAngles--><rect fill="#FEFECE" filter="url(#f1i5scyuomjxej)" height="48" id="LammpsAngles" style="stroke: #A80036; stroke-width: 1.5;" width="125" x="368.5" y="1110.5"/><ellipse cx="383.5" cy="1126.5" fill="#ADD1B2" rx="11" ry="11" style="stroke: #A80036; stroke-width: 1.0;"/><path d="M385.8438,1122.1719 L386.0156,1122.25 C386.2344,1121.9375 386.4375,1121.8438 386.7344,1121.8438 C387.0313,1121.8438 387.3125,1121.9844 387.4688,1122.25 C387.5625,1122.4063 387.5781,1122.5313 387.5781,1122.9688 L387.5781,1124.3906 C387.5781,1124.8125 387.5469,1125 387.4375,1125.1563 C387.2656,1125.375 387,1125.5156 386.7344,1125.5156 C386.5156,1125.5156 386.2813,1125.4063 386.1406,1125.2656 C386,1125.1406 385.9688,1125.0156 385.9063,1124.6094 C385.8125,1124.2031 385.6406,1123.9844 385.1563,1123.7031 C384.6875,1123.4531 384.0781,1123.2969 383.5,1123.2969 C381.7656,1123.2969 380.5156,1124.6094 380.5156,1126.3906 L380.5156,1127.4844 C380.5156,1129.1875 381.8125,1130.2813 383.8594,1130.2813 C384.625,1130.2813 385.3125,1130.1563 385.7344,1129.8906 C385.9219,1129.7969 385.9219,1129.7969 386.375,1129.3125 C386.5625,1129.125 386.7656,1129.0469 386.9844,1129.0469 C387.4531,1129.0469 387.8438,1129.4375 387.8438,1129.8906 C387.8438,1130.2813 387.5156,1130.7344 386.9375,1131.1406 C386.1875,1131.6875 385.0313,1131.9844 383.8125,1131.9844 C380.9219,1131.9844 378.8125,1130.0938 378.8125,1127.5156 L378.8125,1126.3906 C378.8125,1123.6719 380.8125,1121.5938 383.4375,1121.5938 C384.3125,1121.5938 384.9063,1121.7344 385.8438,1122.1719 Z "/><text fill="#000000" font-family="sans-serif" font-size="12" lengthAdjust="spacingAndGlyphs" textLength="93" x="397.5" y="1130.6543">LammpsAngles</text><line style="stroke: #A80036; stroke-width: 1.5;" x1="369.5" x2="492.5" y1="1142.5" y2="1142.5"/><line style="stroke: #A80036; stroke-width: 1.5;" x1="369.5" x2="492.5" y1="1150.5" y2="1150.5"/><!--class LammpsDihedrals--><rect fill="#FEFECE" filter="url(#f1i5scyuomjxej)" height="48" id="LammpsDihedrals" style="stroke: #A80036; stroke-width: 1.5;" width="142" x="529" y="1110.5"/><ellipse cx="544" cy="1126.5" fill="#ADD1B2" rx="11" ry="11" style="stroke: #A80036; stroke-width: 1.0;"/><path d="M546.3438,1122.1719 L546.5156,1122.25 C546.7344,1121.9375 546.9375,1121.8438 547.2344,1121.8438 C547.5313,1121.8438 547.8125,1121.9844 547.9688,1122.25 C548.0625,1122.4063 548.0781,1122.5313 548.0781,1122.9688 L548.0781,1124.3906 C548.0781,1124.8125 548.0469,1125 547.9375,1125.1563 C547.7656,1125.375 547.5,1125.5156 547.2344,1125.5156 C547.0156,1125.5156 546.7813,1125.4063 546.6406,1125.2656 C546.5,1125.1406 546.4688,1125.0156 546.4063,1124.6094 C546.3125,1124.2031 546.1406,1123.9844 545.6563,1123.7031 C545.1875,1123.4531 544.5781,1123.2969 544,1123.2969 C542.2656,1123.2969 541.0156,1124.6094 541.0156,1126.3906 L541.0156,1127.4844 C541.0156,1129.1875 542.3125,1130.2813 544.3594,1130.2813 C545.125,1130.2813 545.8125,1130.1563 546.2344,1129.8906 C546.4219,1129.7969 546.4219,1129.7969 546.875,1129.3125 C547.0625,1129.125 547.2656,1129.0469 547.4844,1129.0469 C547.9531,1129.0469 548.3438,1129.4375 548.3438,1129.8906 C548.3438,1130.2813 548.0156,1130.7344 547.4375,1131.1406 C546.6875,1131.6875 545.5313,1131.9844 544.3125,1131.9844 C541.4219,1131.9844 539.3125,1130.0938 539.3125,1127.5156 L539.3125,1126.3906 C539.3125,1123.6719 541.3125,1121.5938 543.9375,1121.5938 C544.8125,1121.5938 545.4063,1121.7344 546.3438,1122.1719 Z "/><text fill="#000000" font-family="sans-serif" font-size="12" lengthAdjust="spacingAndGlyphs" textLength="110" x="558" y="1130.6543">LammpsDihedrals</text><line style="stroke: #A80036; stroke-width: 1.5;" x1="530" x2="670" y1="1142.5" y2="1142.5"/><line style="stroke: #A80036; stroke-width: 1.5;" x1="530" x2="670" y1="1150.5" y2="1150.5"/><!--class LammpsImpropers--><rect fill="#FEFECE" filter="url(#f1i5scyuomjxej)" height="60.8047" id="LammpsImpropers" style="stroke: #A80036; stroke-width: 1.5;" width="162" x="706" y="1104"/><ellipse cx="728.2" cy="1120" fill="#ADD1B2" rx="11" ry="11" style="stroke: #A80036; stroke-width: 1.0;"/><path d="M730.5438,1115.6719 L730.7156,1115.75 C730.9344,1115.4375 731.1375,1115.3438 731.4344,1115.3438 C731.7313,1115.3438 732.0125,1115.4844 732.1688,1115.75 C732.2625,1115.9063 732.2781,1116.0313 732.2781,1116.4688 L732.2781,1117.8906 C732.2781,1118.3125 732.2469,1118.5 732.1375,1118.6563 C731.9656,1118.875 731.7,1119.0156 731.4344,1119.0156 C731.2156,1119.0156 730.9813,1118.9063 730.8406,1118.7656 C730.7,1118.6406 730.6688,1118.5156 730.6063,1118.1094 C730.5125,1117.7031 730.3406,1117.4844 729.8563,1117.2031 C729.3875,1116.9531 728.7781,1116.7969 728.2,1116.7969 C726.4656,1116.7969 725.2156,1118.1094 725.2156,1119.8906 L725.2156,1120.9844 C725.2156,1122.6875 726.5125,1123.7813 728.5594,1123.7813 C729.325,1123.7813 730.0125,1123.6563 730.4344,1123.3906 C730.6219,1123.2969 730.6219,1123.2969 731.075,1122.8125 C731.2625,1122.625 731.4656,1122.5469 731.6844,1122.5469 C732.1531,1122.5469 732.5438,1122.9375 732.5438,1123.3906 C732.5438,1123.7813 732.2156,1124.2344 731.6375,1124.6406 C730.8875,1125.1875 729.7313,1125.4844 728.5125,1125.4844 C725.6219,1125.4844 723.5125,1123.5938 723.5125,1121.0156 L723.5125,1119.8906 C723.5125,1117.1719 725.5125,1115.0938 728.1375,1115.0938 C729.0125,1115.0938 729.6063,1115.2344 730.5438,1115.6719 Z "/><text fill="#000000" font-family="sans-serif" font-size="12" lengthAdjust="spacingAndGlyphs" textLength="114" x="743.8" y="1124.1543">LammpsImpropers</text><line style="stroke: #A80036; stroke-width: 1.5;" x1="707" x2="867" y1="1136" y2="1136"/><line style="stroke: #A80036; stroke-width: 1.5;" x1="707" x2="867" y1="1144" y2="1144"/><rect fill="#F24D5C" height="6" style="stroke: #C82930; stroke-width: 1.0;" width="6" x="714" y="1152.9023"/><text fill="#000000" font-family="sans-serif" font-size="11" lengthAdjust="spacingAndGlyphs" textLength="136" x="726" y="1158.2104">make_full_seq_to_type()</text><!--class LammpsSpecialBonds--><rect fill="#FEFECE" filter="url(#f1i5scyuomjxej)" height="60.8047" id="LammpsSpecialBonds" style="stroke: #A80036; stroke-width: 1.5;" width="167" x="523.5" y="913"/><ellipse cx="538.5" cy="929" fill="#ADD1B2" rx="11" ry="11" style="stroke: #A80036; stroke-width: 1.0;"/><path d="M540.8438,924.6719 L541.0156,924.75 C541.2344,924.4375 541.4375,924.3438 541.7344,924.3438 C542.0313,924.3438 542.3125,924.4844 542.4688,924.75 C542.5625,924.9063 542.5781,925.0313 542.5781,925.4688 L542.5781,926.8906 C542.5781,927.3125 542.5469,927.5 542.4375,927.6563 C542.2656,927.875 542,928.0156 541.7344,928.0156 C541.5156,928.0156 541.2813,927.9063 541.1406,927.7656 C541,927.6406 540.9688,927.5156 540.9063,927.1094 C540.8125,926.7031 540.6406,926.4844 540.1563,926.2031 C539.6875,925.9531 539.0781,925.7969 538.5,925.7969 C536.7656,925.7969 535.5156,927.1094 535.5156,928.8906 L535.5156,929.9844 C535.5156,931.6875 536.8125,932.7813 538.8594,932.7813 C539.625,932.7813 540.3125,932.6563 540.7344,932.3906 C540.9219,932.2969 540.9219,932.2969 541.375,931.8125 C541.5625,931.625 541.7656,931.5469 541.9844,931.5469 C542.4531,931.5469 542.8438,931.9375 542.8438,932.3906 C542.8438,932.7813 542.5156,933.2344 541.9375,933.6406 C541.1875,934.1875 540.0313,934.4844 538.8125,934.4844 C535.9219,934.4844 533.8125,932.5938 533.8125,930.0156 L533.8125,928.8906 C533.8125,926.1719 535.8125,924.0938 538.4375,924.0938 C539.3125,924.0938 539.9063,924.2344 540.8438,924.6719 Z "/><text fill="#000000" font-family="sans-serif" font-size="12" lengthAdjust="spacingAndGlyphs" textLength="135" x="552.5" y="933.1543">LammpsSpecialBonds</text><line style="stroke: #A80036; stroke-width: 1.5;" x1="524.5" x2="689.5" y1="945" y2="945"/><line style="stroke: #A80036; stroke-width: 1.5;" x1="524.5" x2="689.5" y1="953" y2="953"/><polygon fill="#FFFF44" points="534.5,959.9023,538.5,963.9023,534.5,967.9023,530.5,963.9023" style="stroke: #B38D22; stroke-width: 1.0;"/><text fill="#000000" font-family="sans-serif" font-size="11" lengthAdjust="spacingAndGlyphs" textLength="69" x="543.5" y="967.2104">write_lines()</text><!--class LammpsDataLines--><rect fill="#FEFECE" filter="url(#f1i5scyuomjxej)" height="99.2188" id="LammpsDataLines" style="stroke: #A80036; stroke-width: 1.5;" width="145" x="30.5" y="1085"/><ellipse cx="45.5" cy="1101" fill="#ADD1B2" rx="11" ry="11" style="stroke: #A80036; stroke-width: 1.0;"/><path d="M47.8438,1096.6719 L48.0156,1096.75 C48.2344,1096.4375 48.4375,1096.3438 48.7344,1096.3438 C49.0313,1096.3438 49.3125,1096.4844 49.4688,1096.75 C49.5625,1096.9063 49.5781,1097.0313 49.5781,1097.4688 L49.5781,1098.8906 C49.5781,1099.3125 49.5469,1099.5 49.4375,1099.6563 C49.2656,1099.875 49,1100.0156 48.7344,1100.0156 C48.5156,1100.0156 48.2813,1099.9063 48.1406,1099.7656 C48,1099.6406 47.9688,1099.5156 47.9063,1099.1094 C47.8125,1098.7031 47.6406,1098.4844 47.1563,1098.2031 C46.6875,1097.9531 46.0781,1097.7969 45.5,1097.7969 C43.7656,1097.7969 42.5156,1099.1094 42.5156,1100.8906 L42.5156,1101.9844 C42.5156,1103.6875 43.8125,1104.7813 45.8594,1104.7813 C46.625,1104.7813 47.3125,1104.6563 47.7344,1104.3906 C47.9219,1104.2969 47.9219,1104.2969 48.375,1103.8125 C48.5625,1103.625 48.7656,1103.5469 48.9844,1103.5469 C49.4531,1103.5469 49.8438,1103.9375 49.8438,1104.3906 C49.8438,1104.7813 49.5156,1105.2344 48.9375,1105.6406 C48.1875,1106.1875 47.0313,1106.4844 45.8125,1106.4844 C42.9219,1106.4844 40.8125,1104.5938 40.8125,1102.0156 L40.8125,1100.8906 C40.8125,1098.1719 42.8125,1096.0938 45.4375,1096.0938 C46.3125,1096.0938 46.9063,1096.2344 47.8438,1096.6719 Z "/><text fill="#000000" font-family="sans-serif" font-size="12" lengthAdjust="spacingAndGlyphs" textLength="113" x="59.5" y="1105.1543">LammpsDataLines</text><line style="stroke: #A80036; stroke-width: 1.5;" x1="31.5" x2="174.5" y1="1117" y2="1117"/><rect fill="none" height="6" style="stroke: #C82930; stroke-width: 1.0;" width="6" x="38.5" y="1125.9023"/><text fill="#000000" font-family="sans-serif" font-size="11" lengthAdjust="spacingAndGlyphs" textLength="64" x="50.5" y="1131.2104">line_format</text><rect fill="none" height="6" style="stroke: #C82930; stroke-width: 1.0;" width="6" x="38.5" y="1138.707"/><text fill="#000000" font-family="sans-serif" font-size="11" lengthAdjust="spacingAndGlyphs" textLength="87" x="50.5" y="1144.0151">section_header</text><line style="stroke: #A80036; stroke-width: 1.5;" x1="31.5" x2="174.5" y1="1150.6094" y2="1150.6094"/><polygon fill="#FFFF44" points="41.5,1157.5117,45.5,1161.5117,41.5,1165.5117,37.5,1161.5117" style="stroke: #B38D22; stroke-width: 1.0;"/><text fill="#000000" font-family="sans-serif" font-size="11" lengthAdjust="spacingAndGlyphs" textLength="57" x="50.5" y="1164.8198">set_data()</text><polygon fill="#FFFF44" points="41.5,1170.3164,45.5,1174.3164,41.5,1178.3164,37.5,1174.3164" style="stroke: #B38D22; stroke-width: 1.0;"/><text fill="#000000" font-family="sans-serif" font-size="11" lengthAdjust="spacingAndGlyphs" textLength="36" x="50.5" y="1177.6245">write()</text><!--link Atoms to BondedAtoms--><path d="M302,170.56 C302,182.87 302,196.57 302,209.956 " fill="none" id="Atoms-BondedAtoms" style="stroke: #A80036; stroke-width: 1.0;"/><polygon fill="none" points="295,170.26,302,150.26,309,170.26,295,170.26" style="stroke: #A80036; stroke-width: 1.0;"/><!--link Prism to ExtendedPrism--><path d="M499.287,170.41 C499.453,195.442 499.657,226.255 499.805,248.482 " fill="none" id="Prism-ExtendedPrism" style="stroke: #A80036; stroke-width: 1.0;"/><polygon fill="none" points="492.287,170.31,499.154,150.26,506.286,170.22,492.287,170.31" style="stroke: #A80036; stroke-width: 1.0;"/><!--link LammpsTopology to LammpsBonds--><path d="M334.469,1041.975 C317.008,1067.557 299.746,1092.8486 287.808,1110.3397 " fill="none" id="LammpsTopology-LammpsBonds" style="stroke: #A80036; stroke-width: 1.0;"/><polygon fill="none" points="328.862,1037.774,345.918,1025.201,340.425,1045.666,328.862,1037.774" style="stroke: #A80036; stroke-width: 1.0;"/><!--link LammpsTopology to LammpsAngles--><path d="M416.994,1045.262 C420.875,1069.711 424.666,1093.5982 427.324,1110.3397 " fill="none" id="LammpsTopology-LammpsAngles" style="stroke: #A80036; stroke-width: 1.0;"/><polygon fill="none" points="410.032,1046.051,413.81,1025.201,423.859,1043.857,410.032,1046.051" style="stroke: #A80036; stroke-width: 1.0;"/><!--link LammpsTopology to LammpsDihedrals--><path d="M500.553,1039.051 C528.528,1065.619 556.496,1092.1822 575.614,1110.3397 " fill="none" id="LammpsTopology-LammpsDihedrals" style="stroke: #A80036; stroke-width: 1.0;"/><polygon fill="none" points="495.652,1044.05,485.971,1025.201,505.294,1033.899,495.652,1044.05" style="stroke: #A80036; stroke-width: 1.0;"/><!--link LammpsTopology to LammpsImpropers--><path d="M505.438,1024.703 C505.625,1024.802 505.813,1024.901 506,1025 C581.704,1064.939 609.775,1052.602 689,1085 C702.705,1090.6047 717.157,1097.2965 730.627,1103.8927 " fill="none" id="LammpsTopology-LammpsImpropers" style="stroke: #A80036; stroke-width: 1.0;"/><polygon fill="none" points="501.844,1030.71,488.064,1014.614,508.874,1018.603,501.844,1030.71" style="stroke: #A80036; stroke-width: 1.0;"/><!--link LammpsWriter to LammpsAtoms--><path d="M264.767,776.418 C234.874,813.812 205.095,851.063 181.338,880.781 " fill="none" id="LammpsWriter-LammpsAtoms" style="stroke: #A80036; stroke-width: 1.0;"/><polygon fill="#FFFFFF" points="273.196,765.873,266.3252,768.062,265.7032,775.2463,272.574,773.0572,273.196,765.873" style="stroke: #A80036; stroke-width: 1.0;"/><text fill="#000000" font-family="sans-serif" font-size="13" lengthAdjust="spacingAndGlyphs" textLength="8" x="257.5761" y="771.8185">1</text><text fill="#000000" font-family="sans-serif" font-size="13" lengthAdjust="spacingAndGlyphs" textLength="8" x="178.5802" y="869.7464">1</text><!--link LammpsWriter to LammpsTopology--><path d="M401,815.371 C401,831.625 401,847.334 401,861.839 " fill="none" id="LammpsWriter-LammpsTopology" style="stroke: #A80036; stroke-width: 1.0;"/><polygon fill="#FFFFFF" points="401,802.23,397,808.23,401,814.23,405,808.23,401,802.23" style="stroke: #A80036; stroke-width: 1.0;"/><text fill="#000000" font-family="sans-serif" font-size="13" lengthAdjust="spacingAndGlyphs" textLength="8" x="392.8563" y="821.6617">1</text><text fill="#000000" font-family="sans-serif" font-size="13" lengthAdjust="spacingAndGlyphs" textLength="8" x="392.6438" y="850.9601">4</text><!--link LammpsWriter to LammpsSpecialBonds--><path d="M527.94,813.357 C551.934,852.55 574.092,888.745 588.807,912.783 " fill="none" id="LammpsWriter-LammpsSpecialBonds" style="stroke: #A80036; stroke-width: 1.0;"/><polygon fill="#FFFFFF" points="521.129,802.23,520.8501,809.4357,527.3942,812.4646,527.6731,805.2589,521.129,802.23" style="stroke: #A80036; stroke-width: 1.0;"/><text fill="#000000" font-family="sans-serif" font-size="13" lengthAdjust="spacingAndGlyphs" textLength="8" x="517.3024" y="821.6617">1</text><text fill="#000000" font-family="sans-serif" font-size="13" lengthAdjust="spacingAndGlyphs" textLength="8" x="576.2297" y="902.0015">1</text><!--link LammpsAtoms to LammpsDataLines--><path d="M120.529,1019.257 C117.145,1041.313 113.53,1064.871 110.468,1084.8302 " fill="none" id="LammpsAtoms-LammpsDataLines" style="stroke: #A80036; stroke-width: 1.0;"/><polygon fill="#FFFFFF" points="122.544,1006.124,117.6804,1011.448,120.7243,1017.9852,125.5879,1012.6612,122.544,1006.124" style="stroke: #A80036; stroke-width: 1.0;"/><text fill="#000000" font-family="sans-serif" font-size="13" lengthAdjust="spacingAndGlyphs" textLength="8" x="113.0723" y="1025.8774">1</text><text fill="#000000" font-family="sans-serif" font-size="13" lengthAdjust="spacingAndGlyphs" textLength="8" x="102.9556" y="1073.8513">2</text><!--link LammpsTopology to LammpsDataLines--><path d="M302.399,1007.036 C261.083,1033.239 213.906,1063.16 175.816,1087.3178 " fill="none" id="LammpsTopology-LammpsDataLines" style="stroke: #A80036; stroke-width: 1.0;"/><polygon fill="#FFFFFF" points="313.604,999.929,306.3948,999.7644,303.47,1006.3557,310.6793,1006.5203,313.604,999.929" style="stroke: #A80036; stroke-width: 1.0;"/><text fill="#000000" font-family="sans-serif" font-size="13" lengthAdjust="spacingAndGlyphs" textLength="8" x="298.0353" y="1001.0433">1</text><text fill="#000000" font-family="sans-serif" font-size="13" lengthAdjust="spacingAndGlyphs" textLength="8" x="183.7377" y="1078.7414">1</text><!--link BondedAtoms to LammpsWriter--><path d="M324.441,353.442 C329.546,370.15 335.206,388.673 341.07,407.865 " fill="none" id="BondedAtoms-LammpsWriter" style="stroke: #A80036; stroke-width: 1.0; stroke-dasharray: 7.0,7.0;"/><polygon fill="#A80036" points="322.874,348.316,321.6767,358.0918,324.3342,353.098,329.328,355.7555,322.874,348.316" style="stroke: #A80036; stroke-width: 1.0;"/><!--link ExtendedPrism to LammpsWriter--><path d="M489.454,314.513 C482.218,338.195 471.969,371.737 460.999,407.64 " fill="none" id="ExtendedPrism-LammpsWriter" style="stroke: #A80036; stroke-width: 1.0; stroke-dasharray: 7.0,7.0;"/><polygon fill="#A80036" points="490.952,309.612,484.496,317.0498,489.4905,314.3936,492.1466,319.3881,490.952,309.612" style="stroke: #A80036; stroke-width: 1.0;"/><!--
@startuml
package ase {
  class Atoms
  package calculators.lammpsrun {
    class Prism
  }
}

class BondedAtoms {
  {static} +inherit()
  +add_bond()
  +remove_bond()
  +get_bonded_bonds()
  +get_bonded_angles()
  +get_bonded_dihedrals()
  +get_bonded_impropers()
}

note left: Has ASE's functionalities

class ExtendedPrism {
  +transform_to_lammps()
}

class LammpsWriter {
  +get_required_datanames()
  +get_required_datanames_for_molecule()
  +get_sequence_patterns()
  +get_bond_patterns()
  +get_angle_patterns()
  +get_dihedral_patterns()
  +get_improper_patterns()
  +get_maximum_per_atom()
  +get_max_bonds_per_atom()
  +get_max_angles_per_atom()
  +get_max_dihedrals_per_atom()
  +get_max_impropers_per_atom()
  +set_atom_data()
  +set_atom_types()
  +set_masses()
  +set_topology_types()
  +set_bond_types()
  +set_angle_types()
  +set_dihedral_types()
  +set_improper_types()
  +write_lammps_data()
  +write_lammps_molecule()
  -LammpsAtoms :: lmp_atoms
  -LammpsBonds :: topo
  -LammpsAngles :: topo
  -LammpsDihedrals :: topo
  -LammpsImpropers :: topo
}

class LammpsAtoms {
  #get_num()
  #get_num_type()
  #get_required_datanames()
  #set_data()
  #write_lines()
  #write_lines_for_molecule()
}

class LammpsTopology {
  {static} #create()
  #get_num()
  #get_num_type()
  #get_sequence_patterns()
  #get_maximum_per_atom()
  #set_types()
  #write_lines()
  -lines
  -make_full_seq_to_type()
}

class LammpsBonds {
}

class LammpsAngles {
}

class LammpsDihedrals {
}

class LammpsImpropers {
  -make_full_seq_to_type()
}

class LammpsSpecialBonds {
  #write_lines()
}

class LammpsDataLines {
  #set_data()
  #write()
  -line_format
  -section_header
}

Atoms <|- - BondedAtoms
Prism <|- - ExtendedPrism

LammpsTopology <|- - LammpsBonds
LammpsTopology <|- - LammpsAngles
LammpsTopology <|- - LammpsDihedrals
LammpsTopology <|- - LammpsImpropers

LammpsWriter "1" o- - "1" LammpsAtoms
LammpsWriter "1" o- - "4" LammpsTopology
LammpsWriter "1" o- - "1" LammpsSpecialBonds
LammpsAtoms "1" o- - "2" LammpsDataLines
LammpsTopology "1" o- - "1" LammpsDataLines

BondedAtoms <.. LammpsWriter
ExtendedPrism <.. LammpsWriter
@enduml

PlantUML version 1.2019.01(Sat Feb 09 15:32:04 UTC 2019)
(GPL source distribution)
Java Runtime: Java(TM) SE Runtime Environment
JVM: Java HotSpot(TM) 64-Bit Server VM
Java Version: 1.7.0_25-b15
Operating System: Linux
Default Encoding: UTF-8
Language: en
Country: US
--></g></svg>