<?xml version="1.0" encoding="UTF-8" standalone="no"?>
<!DOCTYPE svg PUBLIC "-//W3C//DTD SVG 1.1//EN"
 "http://www.w3.org/Graphics/SVG/1.1/DTD/svg11.dtd">
<!-- Generated by graphviz version 2.40.1 (20161225.0304)
 -->
<!-- Title: ease4lmp.lammps_data.LammpsBonds.get_maximum_per_atom Pages: 1 -->
<svg width="370pt" height="57pt"
 viewBox="0.00 0.00 370.00 57.00" xmlns="http://www.w3.org/2000/svg" xmlns:xlink="http://www.w3.org/1999/xlink">
<g id="graph0" class="graph" transform="scale(1 1) rotate(0) translate(4 53)">
<title>ease4lmp.lammps_data.LammpsBonds.get_maximum_per_atom</title>
<polygon fill="#ffffff" stroke="transparent" points="-4,4 -4,-53 366,-53 366,4 -4,4"/>
<!-- Node1 -->
<g id="node1" class="node">
<title>Node1</title>
<polygon fill="#bfbfbf" stroke="#000000" points="0,-.5 0,-30.5 161,-30.5 161,-.5 0,-.5"/>
<text text-anchor="start" x="8" y="-18.5" font-family="Helvetica,sans-Serif" font-size="10.00" fill="#000000">ease4lmp.lammps_data.Lammps</text>
<text text-anchor="middle" x="80.5" y="-7.5" font-family="Helvetica,sans-Serif" font-size="10.00" fill="#000000">Bonds.get_maximum_per_atom</text>
</g>
<!-- Node2 -->
<g id="node2" class="node">
<title>Node2</title>
<g id="a_node2"><a xlink:href="classease4lmp_1_1lammps__writer_1_1LammpsWriter.html#a527ecfba8091b26983b61bfc19260e2b" target="_top" xlink:title="This method returns the maximum number of topologies (given by key) per atom. ">
<polygon fill="#ffffff" stroke="#000000" points="197,-.5 197,-30.5 362,-30.5 362,-.5 197,-.5"/>
<text text-anchor="start" x="205" y="-18.5" font-family="Helvetica,sans-Serif" font-size="10.00" fill="#000000">ease4lmp.lammps_writer.Lammps</text>
<text text-anchor="middle" x="279.5" y="-7.5" font-family="Helvetica,sans-Serif" font-size="10.00" fill="#000000">Writer.get_maximum_per_atom</text>
</a>
</g>
</g>
<!-- Node1&#45;&gt;Node2 -->
<g id="edge1" class="edge">
<title>Node1&#45;&gt;Node2</title>
<path fill="none" stroke="#191970" d="M171.4124,-15.5C179.87,-15.5 188.4109,-15.5 196.7883,-15.5"/>
<polygon fill="#191970" stroke="#191970" points="171.1541,-12.0001 161.154,-15.5 171.154,-19.0001 171.1541,-12.0001"/>
</g>
<!-- Node2&#45;&gt;Node2 -->
<g id="edge2" class="edge">
<title>Node2&#45;&gt;Node2</title>
<path fill="none" stroke="#191970" d="M244.3178,-40.9579C248.6844,-45.679 260.4118,-49 279.5,-49 310.8242,-49 322.3261,-40.0566 314.0056,-30.659"/>
<polygon fill="#191970" stroke="#191970" points="247.8312,-40.867 244.9944,-30.659 240.8463,-40.408 247.8312,-40.867"/>
</g>
</g>
</svg>
