<?xml version="1.0" encoding="UTF-8" standalone="no"?>
<!DOCTYPE svg PUBLIC "-//W3C//DTD SVG 1.1//EN"
 "http://www.w3.org/Graphics/SVG/1.1/DTD/svg11.dtd">
<!-- Generated by graphviz version 2.40.1 (20161225.0304)
 -->
<!-- Title: ease4lmp.lammps_writer.LammpsWriter.print_maximum_per_atom Pages: 1 -->
<svg width="376pt" height="209pt"
 viewBox="0.00 0.00 376.00 208.50" xmlns="http://www.w3.org/2000/svg" xmlns:xlink="http://www.w3.org/1999/xlink">
<g id="graph0" class="graph" transform="scale(1 1) rotate(0) translate(4 204.5)">
<title>ease4lmp.lammps_writer.LammpsWriter.print_maximum_per_atom</title>
<polygon fill="#ffffff" stroke="transparent" points="-4,4 -4,-204.5 372,-204.5 372,4 -4,4"/>
<!-- Node45 -->
<g id="node1" class="node">
<title>Node45</title>
<polygon fill="#bfbfbf" stroke="#000000" points="0,-93 0,-123 165,-123 165,-93 0,-93"/>
<text text-anchor="start" x="8" y="-111" font-family="Helvetica,sans-Serif" font-size="10.00" fill="#000000">ease4lmp.lammps_writer.Lammps</text>
<text text-anchor="middle" x="82.5" y="-100" font-family="Helvetica,sans-Serif" font-size="10.00" fill="#000000">Writer.print_maximum_per_atom</text>
</g>
<!-- Node46 -->
<g id="node2" class="node">
<title>Node46</title>
<g id="a_node2"><a xlink:href="classease4lmp_1_1lammps__writer_1_1LammpsWriter.html#a2448504d65413dbcea7d3166cbdb970b" target="_top" xlink:title="ease4lmp.lammps_writer.Lammps\lWriter.print_max_bonds_per_atom">
<polygon fill="#ffffff" stroke="#000000" points="202,-170 202,-200 367,-200 367,-170 202,-170"/>
<text text-anchor="start" x="210" y="-188" font-family="Helvetica,sans-Serif" font-size="10.00" fill="#000000">ease4lmp.lammps_writer.Lammps</text>
<text text-anchor="middle" x="284.5" y="-177" font-family="Helvetica,sans-Serif" font-size="10.00" fill="#000000">Writer.print_max_bonds_per_atom</text>
</a>
</g>
</g>
<!-- Node45&#45;&gt;Node46 -->
<g id="edge1" class="edge">
<title>Node45&#45;&gt;Node46</title>
<path fill="none" stroke="#191970" d="M122.504,-127.5836C145.2041,-138.2655 174.3273,-151.2569 201,-161 209.6424,-164.1569 218.9071,-167.172 228.0068,-169.9337"/>
<polygon fill="#191970" stroke="#191970" points="123.7292,-124.2908 113.1946,-123.1632 120.7267,-130.6142 123.7292,-124.2908"/>
</g>
<!-- Node47 -->
<g id="node3" class="node">
<title>Node47</title>
<g id="a_node3"><a xlink:href="classease4lmp_1_1lammps__writer_1_1LammpsWriter.html#a600c721fa9f047397a71324e34e3f666" target="_top" xlink:title="ease4lmp.lammps_writer.Lammps\lWriter.print_max_angles_per_atom">
<polygon fill="#ffffff" stroke="#000000" points="201,-121 201,-151 368,-151 368,-121 201,-121"/>
<text text-anchor="start" x="209" y="-139" font-family="Helvetica,sans-Serif" font-size="10.00" fill="#000000">ease4lmp.lammps_writer.Lammps</text>
<text text-anchor="middle" x="284.5" y="-128" font-family="Helvetica,sans-Serif" font-size="10.00" fill="#000000">Writer.print_max_angles_per_atom</text>
</a>
</g>
</g>
<!-- Node45&#45;&gt;Node47 -->
<g id="edge2" class="edge">
<title>Node45&#45;&gt;Node47</title>
<path fill="none" stroke="#191970" d="M175.2388,-120.8549C183.7967,-122.0411 192.4343,-123.2384 200.9035,-124.4124"/>
<polygon fill="#191970" stroke="#191970" points="175.6298,-117.3757 165.244,-119.4695 174.6687,-124.3094 175.6298,-117.3757"/>
</g>
<!-- Node48 -->
<g id="node4" class="node">
<title>Node48</title>
<g id="a_node4"><a xlink:href="classease4lmp_1_1lammps__writer_1_1LammpsWriter.html#a013e79ee87d7d43e6e9f91bc5b9a5213" target="_top" xlink:title="ease4lmp.lammps_writer.Lammps\lWriter.print_max_dihedrals\l_per_atom">
<polygon fill="#ffffff" stroke="#000000" points="202,-60.5 202,-101.5 367,-101.5 367,-60.5 202,-60.5"/>
<text text-anchor="start" x="210" y="-89.5" font-family="Helvetica,sans-Serif" font-size="10.00" fill="#000000">ease4lmp.lammps_writer.Lammps</text>
<text text-anchor="start" x="210" y="-78.5" font-family="Helvetica,sans-Serif" font-size="10.00" fill="#000000">Writer.print_max_dihedrals</text>
<text text-anchor="middle" x="284.5" y="-67.5" font-family="Helvetica,sans-Serif" font-size="10.00" fill="#000000">_per_atom</text>
</a>
</g>
</g>
<!-- Node45&#45;&gt;Node48 -->
<g id="edge3" class="edge">
<title>Node45&#45;&gt;Node48</title>
<path fill="none" stroke="#191970" d="M175.2311,-95.6053C184.1223,-94.4168 193.0995,-93.2169 201.8847,-92.0426"/>
<polygon fill="#191970" stroke="#191970" points="174.6921,-92.1461 165.244,-96.9402 175.6195,-99.0844 174.6921,-92.1461"/>
</g>
<!-- Node49 -->
<g id="node5" class="node">
<title>Node49</title>
<g id="a_node5"><a xlink:href="classease4lmp_1_1lammps__writer_1_1LammpsWriter.html#a1a2aab1fb44b8e8c80b74f48b1b5137c" target="_top" xlink:title="ease4lmp.lammps_writer.Lammps\lWriter.print_max_impropers\l_per_atom">
<polygon fill="#ffffff" stroke="#000000" points="202,-.5 202,-41.5 367,-41.5 367,-.5 202,-.5"/>
<text text-anchor="start" x="210" y="-29.5" font-family="Helvetica,sans-Serif" font-size="10.00" fill="#000000">ease4lmp.lammps_writer.Lammps</text>
<text text-anchor="start" x="210" y="-18.5" font-family="Helvetica,sans-Serif" font-size="10.00" fill="#000000">Writer.print_max_impropers</text>
<text text-anchor="middle" x="284.5" y="-7.5" font-family="Helvetica,sans-Serif" font-size="10.00" fill="#000000">_per_atom</text>
</a>
</g>
</g>
<!-- Node45&#45;&gt;Node49 -->
<g id="edge4" class="edge">
<title>Node45&#45;&gt;Node49</title>
<path fill="none" stroke="#191970" d="M120.8939,-88.2869C143.8668,-76.8059 173.7946,-62.3944 201,-51 208.6723,-47.7866 216.8231,-44.5941 224.9093,-41.5565"/>
<polygon fill="#191970" stroke="#191970" points="119.1814,-85.2304 111.8198,-92.85 122.3262,-91.4842 119.1814,-85.2304"/>
</g>
</g>
</svg>
