<?xml version="1.0" encoding="UTF-8" standalone="no"?>
<!DOCTYPE svg PUBLIC "-//W3C//DTD SVG 1.1//EN"
 "http://www.w3.org/Graphics/SVG/1.1/DTD/svg11.dtd">
<!-- Generated by graphviz version 2.40.1 (20161225.0304)
 -->
<!-- Title: ease4lmp.lammps_writer.LammpsWriter.set_improper_types Pages: 1 -->
<svg width="374pt" height="88pt"
 viewBox="0.00 0.00 374.00 88.00" xmlns="http://www.w3.org/2000/svg" xmlns:xlink="http://www.w3.org/1999/xlink">
<g id="graph0" class="graph" transform="scale(1 1) rotate(0) translate(4 84)">
<title>ease4lmp.lammps_writer.LammpsWriter.set_improper_types</title>
<polygon fill="#ffffff" stroke="transparent" points="-4,4 -4,-84 370,-84 370,4 -4,4"/>
<!-- Node61 -->
<g id="node1" class="node">
<title>Node61</title>
<polygon fill="#bfbfbf" stroke="#000000" points="0,-24.5 0,-54.5 165,-54.5 165,-24.5 0,-24.5"/>
<text text-anchor="start" x="8" y="-42.5" font-family="Helvetica,sans-Serif" font-size="10.00" fill="#000000">ease4lmp.lammps_writer.Lammps</text>
<text text-anchor="middle" x="82.5" y="-31.5" font-family="Helvetica,sans-Serif" font-size="10.00" fill="#000000">Writer.set_improper_types</text>
</g>
<!-- Node62 -->
<g id="node2" class="node">
<title>Node62</title>
<g id="a_node2"><a xlink:href="classease4lmp_1_1lammps__writer_1_1LammpsWriter.html#a65a0d4c6709c921910e90202f723bd55" target="_top" xlink:title="ease4lmp.lammps_writer.Lammps\lWriter.set_topology_types">
<polygon fill="#ffffff" stroke="#000000" points="201,-49.5 201,-79.5 366,-79.5 366,-49.5 201,-49.5"/>
<text text-anchor="start" x="209" y="-67.5" font-family="Helvetica,sans-Serif" font-size="10.00" fill="#000000">ease4lmp.lammps_writer.Lammps</text>
<text text-anchor="middle" x="283.5" y="-56.5" font-family="Helvetica,sans-Serif" font-size="10.00" fill="#000000">Writer.set_topology_types</text>
</a>
</g>
</g>
<!-- Node61&#45;&gt;Node62 -->
<g id="edge1" class="edge">
<title>Node61&#45;&gt;Node62</title>
<path fill="none" stroke="#191970" d="M165.1245,-49.7767C173.6075,-50.8318 182.266,-51.9087 190.8477,-52.9761"/>
<polygon fill="#191970" stroke="#191970" points="190.5159,-56.4617 200.8715,-54.2228 191.38,-49.5152 190.5159,-56.4617"/>
</g>
<!-- Node63 -->
<g id="node3" class="node">
<title>Node63</title>
<g id="a_node3"><a xlink:href="classease4lmp_1_1lammps__writer_1_1LammpsWriter.html#ae5ce41137c13685ac15eef80bd8956c0" target="_top" xlink:title="ease4lmp.lammps_writer.Lammps\lWriter.write_lammps_data">
<polygon fill="#ffffff" stroke="#000000" points="201,-.5 201,-30.5 366,-30.5 366,-.5 201,-.5"/>
<text text-anchor="start" x="209" y="-18.5" font-family="Helvetica,sans-Serif" font-size="10.00" fill="#000000">ease4lmp.lammps_writer.Lammps</text>
<text text-anchor="middle" x="283.5" y="-7.5" font-family="Helvetica,sans-Serif" font-size="10.00" fill="#000000">Writer.write_lammps_data</text>
</a>
</g>
</g>
<!-- Node61&#45;&gt;Node63 -->
<g id="edge2" class="edge">
<title>Node61&#45;&gt;Node63</title>
<path fill="none" stroke="#191970" d="M165.1245,-29.6344C173.6075,-28.6215 182.266,-27.5876 190.8477,-26.563"/>
<polygon fill="#191970" stroke="#191970" points="191.357,-30.0271 200.8715,-25.3661 190.527,-23.0765 191.357,-30.0271"/>
</g>
</g>
</svg>
