<?xml version="1.0" encoding="UTF-8" standalone="no"?>
<!DOCTYPE svg PUBLIC "-//W3C//DTD SVG 1.1//EN"
 "http://www.w3.org/Graphics/SVG/1.1/DTD/svg11.dtd">
<!-- Generated by graphviz version 2.40.1 (20161225.0304)
 -->
<!-- Title: ease4lmp.bonded_atoms.BondedAtoms.remove_bond Pages: 1 -->
<svg width="369pt" height="88pt"
 viewBox="0.00 0.00 369.00 88.00" xmlns="http://www.w3.org/2000/svg" xmlns:xlink="http://www.w3.org/1999/xlink">
<g id="graph0" class="graph" transform="scale(1 1) rotate(0) translate(4 84)">
<title>ease4lmp.bonded_atoms.BondedAtoms.remove_bond</title>
<polygon fill="#ffffff" stroke="transparent" points="-4,4 -4,-84 365,-84 365,4 -4,4"/>
<!-- Node46 -->
<g id="node1" class="node">
<title>Node46</title>
<polygon fill="#bfbfbf" stroke="#000000" points="0,-24.5 0,-54.5 161,-54.5 161,-24.5 0,-24.5"/>
<text text-anchor="start" x="8" y="-42.5" font-family="Helvetica,sans-Serif" font-size="10.00" fill="#000000">ease4lmp.bonded_atoms.Bonded</text>
<text text-anchor="middle" x="80.5" y="-31.5" font-family="Helvetica,sans-Serif" font-size="10.00" fill="#000000">Atoms.remove_bond</text>
</g>
<!-- Node47 -->
<g id="node2" class="node">
<title>Node47</title>
<g id="a_node2"><a xlink:href="classease4lmp_1_1bonded__atoms_1_1BondedAtoms.html#aebda2c535bbcd56b3f0a520714f9634c" target="_top" xlink:title="ease4lmp.bonded_atoms.Bonded\lAtoms._remove_bond">
<polygon fill="#ffffff" stroke="#000000" points="198.5,-49.5 198.5,-79.5 359.5,-79.5 359.5,-49.5 198.5,-49.5"/>
<text text-anchor="start" x="206.5" y="-67.5" font-family="Helvetica,sans-Serif" font-size="10.00" fill="#000000">ease4lmp.bonded_atoms.Bonded</text>
<text text-anchor="middle" x="279" y="-56.5" font-family="Helvetica,sans-Serif" font-size="10.00" fill="#000000">Atoms._remove_bond</text>
</a>
</g>
</g>
<!-- Node46&#45;&gt;Node47 -->
<g id="edge1" class="edge">
<title>Node46&#45;&gt;Node47</title>
<path fill="none" stroke="#191970" d="M161.2375,-49.6685C170.128,-50.7882 179.2238,-51.9337 188.226,-53.0675"/>
<polygon fill="#191970" stroke="#191970" points="187.975,-56.5635 198.334,-54.3406 188.8498,-49.6183 187.975,-56.5635"/>
</g>
<!-- Node48 -->
<g id="node3" class="node">
<title>Node48</title>
<g id="a_node3"><a xlink:href="classease4lmp_1_1bonded__atoms_1_1BondedAtoms.html#a3ae881420fbfc3b3473703d210f88ee9" target="_top" xlink:title="ease4lmp.bonded_atoms.Bonded\lAtoms._get_matched_bond_index">
<polygon fill="#ffffff" stroke="#000000" points="197,-.5 197,-30.5 361,-30.5 361,-.5 197,-.5"/>
<text text-anchor="start" x="205" y="-18.5" font-family="Helvetica,sans-Serif" font-size="10.00" fill="#000000">ease4lmp.bonded_atoms.Bonded</text>
<text text-anchor="middle" x="279" y="-7.5" font-family="Helvetica,sans-Serif" font-size="10.00" fill="#000000">Atoms._get_matched_bond_index</text>
</a>
</g>
</g>
<!-- Node46&#45;&gt;Node48 -->
<g id="edge2" class="edge">
<title>Node46&#45;&gt;Node48</title>
<path fill="none" stroke="#191970" d="M161.2375,-29.7383C169.6466,-28.7216 178.2395,-27.6826 186.7631,-26.6521"/>
<polygon fill="#191970" stroke="#191970" points="187.2144,-30.1231 196.722,-25.448 186.3741,-23.1737 187.2144,-30.1231"/>
</g>
</g>
</svg>
