<?xml version="1.0" encoding="UTF-8" standalone="no"?>
<!DOCTYPE svg PUBLIC "-//W3C//DTD SVG 1.1//EN"
 "http://www.w3.org/Graphics/SVG/1.1/DTD/svg11.dtd">
<!-- Generated by graphviz version 2.40.1 (20161225.0304)
 -->
<!-- Title: ease4lmp.lammps_data.LammpsTopology.get_maximum_per_atom Pages: 1 -->
<svg width="376pt" height="57pt"
 viewBox="0.00 0.00 376.00 57.00" xmlns="http://www.w3.org/2000/svg" xmlns:xlink="http://www.w3.org/1999/xlink">
<g id="graph0" class="graph" transform="scale(1 1) rotate(0) translate(4 53)">
<title>ease4lmp.lammps_data.LammpsTopology.get_maximum_per_atom</title>
<polygon fill="#ffffff" stroke="transparent" points="-4,4 -4,-53 372,-53 372,4 -4,4"/>
<!-- Node13 -->
<g id="node1" class="node">
<title>Node13</title>
<polygon fill="#bfbfbf" stroke="#000000" points="0,-.5 0,-30.5 167,-30.5 167,-.5 0,-.5"/>
<text text-anchor="start" x="8" y="-18.5" font-family="Helvetica,sans-Serif" font-size="10.00" fill="#000000">ease4lmp.lammps_data.Lammps</text>
<text text-anchor="middle" x="83.5" y="-7.5" font-family="Helvetica,sans-Serif" font-size="10.00" fill="#000000">Topology.get_maximum_per_atom</text>
</g>
<!-- Node14 -->
<g id="node2" class="node">
<title>Node14</title>
<g id="a_node2"><a xlink:href="classease4lmp_1_1lammps__writer_1_1LammpsWriter.html#a527ecfba8091b26983b61bfc19260e2b" target="_top" xlink:title="ease4lmp.lammps_writer.Lammps\lWriter.get_maximum_per_atom">
<polygon fill="#ffffff" stroke="#000000" points="203,-.5 203,-30.5 368,-30.5 368,-.5 203,-.5"/>
<text text-anchor="start" x="211" y="-18.5" font-family="Helvetica,sans-Serif" font-size="10.00" fill="#000000">ease4lmp.lammps_writer.Lammps</text>
<text text-anchor="middle" x="285.5" y="-7.5" font-family="Helvetica,sans-Serif" font-size="10.00" fill="#000000">Writer.get_maximum_per_atom</text>
</a>
</g>
</g>
<!-- Node13&#45;&gt;Node14 -->
<g id="edge1" class="edge">
<title>Node13&#45;&gt;Node14</title>
<path fill="none" stroke="#191970" d="M177.1642,-15.5C185.7617,-15.5 194.4304,-15.5 202.9194,-15.5"/>
<polygon fill="#191970" stroke="#191970" points="177.1193,-12.0001 167.1193,-15.5 177.1192,-19.0001 177.1193,-12.0001"/>
</g>
<!-- Node14&#45;&gt;Node14 -->
<g id="edge2" class="edge">
<title>Node14&#45;&gt;Node14</title>
<path fill="none" stroke="#191970" d="M249.607,-40.9579C254.0619,-45.679 266.0262,-49 285.5,-49 317.457,-49 329.1913,-40.0566 320.7027,-30.659"/>
<polygon fill="#191970" stroke="#191970" points="253.1206,-40.8707 250.2973,-30.659 246.1363,-40.4025 253.1206,-40.8707"/>
</g>
</g>
</svg>
