<?xml version="1.0" encoding="UTF-8" standalone="no"?>
<!DOCTYPE svg PUBLIC "-//W3C//DTD SVG 1.1//EN"
 "http://www.w3.org/Graphics/SVG/1.1/DTD/svg11.dtd">
<!-- Generated by graphviz version 2.40.1 (20161225.0304)
 -->
<!-- Title: ease4lmp.bonded_atoms.BondedAtoms.add_bond Pages: 1 -->
<svg width="370pt" height="39pt"
 viewBox="0.00 0.00 370.00 39.00" xmlns="http://www.w3.org/2000/svg" xmlns:xlink="http://www.w3.org/1999/xlink">
<g id="graph0" class="graph" transform="scale(1 1) rotate(0) translate(4 35)">
<title>ease4lmp.bonded_atoms.BondedAtoms.add_bond</title>
<polygon fill="#ffffff" stroke="transparent" points="-4,4 -4,-35 366,-35 366,4 -4,4"/>
<!-- Node17 -->
<g id="node1" class="node">
<title>Node17</title>
<polygon fill="#bfbfbf" stroke="#000000" points="0,-.5 0,-30.5 161,-30.5 161,-.5 0,-.5"/>
<text text-anchor="start" x="8" y="-18.5" font-family="Helvetica,sans-Serif" font-size="10.00" fill="#000000">ease4lmp.bonded_atoms.Bonded</text>
<text text-anchor="middle" x="80.5" y="-7.5" font-family="Helvetica,sans-Serif" font-size="10.00" fill="#000000">Atoms.add_bond</text>
</g>
<!-- Node18 -->
<g id="node2" class="node">
<title>Node18</title>
<g id="a_node2"><a xlink:href="classease4lmp_1_1bonded__atoms_1_1BondedAtoms.html#a56a907e38e1970df1be8080afcb2b63c" target="_top" xlink:title="ease4lmp.bonded_atoms.Bonded\lAtoms._get_available_bond_index">
<polygon fill="#ffffff" stroke="#000000" points="197,-.5 197,-30.5 362,-30.5 362,-.5 197,-.5"/>
<text text-anchor="start" x="205" y="-18.5" font-family="Helvetica,sans-Serif" font-size="10.00" fill="#000000">ease4lmp.bonded_atoms.Bonded</text>
<text text-anchor="middle" x="279.5" y="-7.5" font-family="Helvetica,sans-Serif" font-size="10.00" fill="#000000">Atoms._get_available_bond_index</text>
</a>
</g>
</g>
<!-- Node17&#45;&gt;Node18 -->
<g id="edge1" class="edge">
<title>Node17&#45;&gt;Node18</title>
<path fill="none" stroke="#191970" d="M161.154,-15.5C169.5947,-15.5 178.2232,-15.5 186.7844,-15.5"/>
<polygon fill="#191970" stroke="#191970" points="186.7883,-19.0001 196.7883,-15.5 186.7882,-12.0001 186.7883,-19.0001"/>
</g>
</g>
</svg>
