<?xml version="1.0" encoding="UTF-8" standalone="no"?>
<!DOCTYPE svg PUBLIC "-//W3C//DTD SVG 1.1//EN"
 "http://www.w3.org/Graphics/SVG/1.1/DTD/svg11.dtd">
<!-- Generated by graphviz version 2.40.1 (20161225.0304)
 -->
<!-- Title: ease4lmp.bonded_atoms.BondedAtoms._get_matched_bond_index Pages: 1 -->
<svg width="369pt" height="39pt"
 viewBox="0.00 0.00 369.00 39.00" xmlns="http://www.w3.org/2000/svg" xmlns:xlink="http://www.w3.org/1999/xlink">
<g id="graph0" class="graph" transform="scale(1 1) rotate(0) translate(4 35)">
<title>ease4lmp.bonded_atoms.BondedAtoms._get_matched_bond_index</title>
<polygon fill="#ffffff" stroke="transparent" points="-4,4 -4,-35 365,-35 365,4 -4,4"/>
<!-- Node9 -->
<g id="node1" class="node">
<title>Node9</title>
<polygon fill="#bfbfbf" stroke="#000000" points="0,-.5 0,-30.5 164,-30.5 164,-.5 0,-.5"/>
<text text-anchor="start" x="8" y="-18.5" font-family="Helvetica,sans-Serif" font-size="10.00" fill="#000000">ease4lmp.bonded_atoms.Bonded</text>
<text text-anchor="middle" x="82" y="-7.5" font-family="Helvetica,sans-Serif" font-size="10.00" fill="#000000">Atoms._get_matched_bond_index</text>
</g>
<!-- Node10 -->
<g id="node2" class="node">
<title>Node10</title>
<g id="a_node2"><a xlink:href="classease4lmp_1_1bonded__atoms_1_1BondedAtoms.html#a56c3d2b35bc7e99aca8563a5cab9c693" target="_top" xlink:title="This method removes a bond connecting tow atoms. ">
<polygon fill="#ffffff" stroke="#000000" points="200,-.5 200,-30.5 361,-30.5 361,-.5 200,-.5"/>
<text text-anchor="start" x="208" y="-18.5" font-family="Helvetica,sans-Serif" font-size="10.00" fill="#000000">ease4lmp.bonded_atoms.Bonded</text>
<text text-anchor="middle" x="280.5" y="-7.5" font-family="Helvetica,sans-Serif" font-size="10.00" fill="#000000">Atoms.remove_bond</text>
</a>
</g>
</g>
<!-- Node9&#45;&gt;Node10 -->
<g id="edge1" class="edge">
<title>Node9&#45;&gt;Node10</title>
<path fill="none" stroke="#191970" d="M174.2233,-15.5C182.8278,-15.5 191.5031,-15.5 199.9888,-15.5"/>
<polygon fill="#191970" stroke="#191970" points="174.1705,-12.0001 164.1704,-15.5 174.1704,-19.0001 174.1705,-12.0001"/>
</g>
</g>
</svg>
