<?xml version="1.0" encoding="UTF-8" standalone="no"?>
<!DOCTYPE svg PUBLIC "-//W3C//DTD SVG 1.1//EN"
 "http://www.w3.org/Graphics/SVG/1.1/DTD/svg11.dtd">
<!-- Generated by graphviz version 2.40.1 (20161225.0304)
 -->
<!-- Title: ease4lmp.lammps_data.LammpsAtoms.set_data Pages: 1 -->
<svg width="366pt" height="39pt"
 viewBox="0.00 0.00 366.00 39.00" xmlns="http://www.w3.org/2000/svg" xmlns:xlink="http://www.w3.org/1999/xlink">
<g id="graph0" class="graph" transform="scale(1 1) rotate(0) translate(4 35)">
<title>ease4lmp.lammps_data.LammpsAtoms.set_data</title>
<polygon fill="#ffffff" stroke="transparent" points="-4,4 -4,-35 362,-35 362,4 -4,4"/>
<!-- Node4 -->
<g id="node1" class="node">
<title>Node4</title>
<polygon fill="#bfbfbf" stroke="#000000" points="0,-.5 0,-30.5 161,-30.5 161,-.5 0,-.5"/>
<text text-anchor="start" x="8" y="-18.5" font-family="Helvetica,sans-Serif" font-size="10.00" fill="#000000">ease4lmp.lammps_data.Lammps</text>
<text text-anchor="middle" x="80.5" y="-7.5" font-family="Helvetica,sans-Serif" font-size="10.00" fill="#000000">Atoms.set_data</text>
</g>
<!-- Node5 -->
<g id="node2" class="node">
<title>Node5</title>
<g id="a_node2"><a xlink:href="classease4lmp_1_1lammps__data_1_1LammpsAtoms.html#a1d87b568625d57cbdac7ba5a7e6357d7" target="_top" xlink:title="ease4lmp.lammps_data.Lammps\lAtoms.__init__">
<polygon fill="#ffffff" stroke="#000000" points="197,-.5 197,-30.5 358,-30.5 358,-.5 197,-.5"/>
<text text-anchor="start" x="205" y="-18.5" font-family="Helvetica,sans-Serif" font-size="10.00" fill="#000000">ease4lmp.lammps_data.Lammps</text>
<text text-anchor="middle" x="277.5" y="-7.5" font-family="Helvetica,sans-Serif" font-size="10.00" fill="#000000">Atoms.__init__</text>
</a>
</g>
</g>
<!-- Node4&#45;&gt;Node5 -->
<g id="edge1" class="edge">
<title>Node4&#45;&gt;Node5</title>
<path fill="none" stroke="#191970" d="M171.2155,-15.5C179.7951,-15.5 188.454,-15.5 196.9296,-15.5"/>
<polygon fill="#191970" stroke="#191970" points="171.1959,-12.0001 161.1959,-15.5 171.1958,-19.0001 171.1959,-12.0001"/>
</g>
</g>
</svg>
