<?xml version="1.0" encoding="UTF-8" standalone="no"?>
<!DOCTYPE svg PUBLIC "-//W3C//DTD SVG 1.1//EN"
 "http://www.w3.org/Graphics/SVG/1.1/DTD/svg11.dtd">
<!-- Generated by graphviz version 2.40.1 (20161225.0304)
 -->
<!-- Title: ease4lmp.lammps_data.LammpsTopology.get_sequence_patterns Pages: 1 -->
<svg width="370pt" height="186pt"
 viewBox="0.00 0.00 370.00 186.00" xmlns="http://www.w3.org/2000/svg" xmlns:xlink="http://www.w3.org/1999/xlink">
<g id="graph0" class="graph" transform="scale(1 1) rotate(0) translate(4 182)">
<title>ease4lmp.lammps_data.LammpsTopology.get_sequence_patterns</title>
<polygon fill="#ffffff" stroke="transparent" points="-4,4 -4,-182 366,-182 366,4 -4,4"/>
<!-- Node15 -->
<g id="node1" class="node">
<title>Node15</title>
<polygon fill="#bfbfbf" stroke="#000000" points="0,-73.5 0,-103.5 161,-103.5 161,-73.5 0,-73.5"/>
<text text-anchor="start" x="8" y="-91.5" font-family="Helvetica,sans-Serif" font-size="10.00" fill="#000000">ease4lmp.lammps_data.Lammps</text>
<text text-anchor="middle" x="80.5" y="-80.5" font-family="Helvetica,sans-Serif" font-size="10.00" fill="#000000">Topology.get_sequence_patterns</text>
</g>
<!-- Node16 -->
<g id="node2" class="node">
<title>Node16</title>
<g id="a_node2"><a xlink:href="classease4lmp_1_1lammps__writer_1_1LammpsWriter.html#a069fd741485e33b79947604f81257e71" target="_top" xlink:title="ease4lmp.lammps_writer.Lammps\lWriter.get_bond_patterns">
<polygon fill="#ffffff" stroke="#000000" points="197,-147.5 197,-177.5 362,-177.5 362,-147.5 197,-147.5"/>
<text text-anchor="start" x="205" y="-165.5" font-family="Helvetica,sans-Serif" font-size="10.00" fill="#000000">ease4lmp.lammps_writer.Lammps</text>
<text text-anchor="middle" x="279.5" y="-154.5" font-family="Helvetica,sans-Serif" font-size="10.00" fill="#000000">Writer.get_bond_patterns</text>
</a>
</g>
</g>
<!-- Node15&#45;&gt;Node16 -->
<g id="edge1" class="edge">
<title>Node15&#45;&gt;Node16</title>
<path fill="none" stroke="#191970" d="M122.0918,-107.819C144.1014,-117.6663 171.7332,-129.4411 197,-138.5 205.7057,-141.6213 215.0336,-144.6384 224.1717,-147.4187"/>
<polygon fill="#191970" stroke="#191970" points="123.2706,-104.5111 112.716,-103.589 120.3919,-110.8918 123.2706,-104.5111"/>
</g>
<!-- Node17 -->
<g id="node3" class="node">
<title>Node17</title>
<g id="a_node3"><a xlink:href="classease4lmp_1_1lammps__writer_1_1LammpsWriter.html#ac6e43fee32694b311aaeb5d18bf9ef75" target="_top" xlink:title="ease4lmp.lammps_writer.Lammps\lWriter.get_angle_patterns">
<polygon fill="#ffffff" stroke="#000000" points="197,-98.5 197,-128.5 362,-128.5 362,-98.5 197,-98.5"/>
<text text-anchor="start" x="205" y="-116.5" font-family="Helvetica,sans-Serif" font-size="10.00" fill="#000000">ease4lmp.lammps_writer.Lammps</text>
<text text-anchor="middle" x="279.5" y="-105.5" font-family="Helvetica,sans-Serif" font-size="10.00" fill="#000000">Writer.get_angle_patterns</text>
</a>
</g>
</g>
<!-- Node15&#45;&gt;Node17 -->
<g id="edge2" class="edge">
<title>Node15&#45;&gt;Node17</title>
<path fill="none" stroke="#191970" d="M171.1336,-99.8861C179.6822,-100.9601 188.3188,-102.0451 196.7883,-103.1091"/>
<polygon fill="#191970" stroke="#191970" points="171.5124,-96.4063 161.154,-98.6324 170.6398,-103.3517 171.5124,-96.4063"/>
</g>
<!-- Node18 -->
<g id="node4" class="node">
<title>Node18</title>
<g id="a_node4"><a xlink:href="classease4lmp_1_1lammps__writer_1_1LammpsWriter.html#a6b1ada84515a9f87d0c662aa36c59bc5" target="_top" xlink:title="ease4lmp.lammps_writer.Lammps\lWriter.get_dihedral_patterns">
<polygon fill="#ffffff" stroke="#000000" points="197,-49.5 197,-79.5 362,-79.5 362,-49.5 197,-49.5"/>
<text text-anchor="start" x="205" y="-67.5" font-family="Helvetica,sans-Serif" font-size="10.00" fill="#000000">ease4lmp.lammps_writer.Lammps</text>
<text text-anchor="middle" x="279.5" y="-56.5" font-family="Helvetica,sans-Serif" font-size="10.00" fill="#000000">Writer.get_dihedral_patterns</text>
</a>
</g>
</g>
<!-- Node15&#45;&gt;Node18 -->
<g id="edge3" class="edge">
<title>Node15&#45;&gt;Node18</title>
<path fill="none" stroke="#191970" d="M171.1336,-77.5693C179.6822,-76.5383 188.3188,-75.4967 196.7883,-74.4753"/>
<polygon fill="#191970" stroke="#191970" points="170.663,-74.1006 161.154,-78.7729 171.5012,-81.0503 170.663,-74.1006"/>
</g>
<!-- Node19 -->
<g id="node5" class="node">
<title>Node19</title>
<g id="a_node5"><a xlink:href="classease4lmp_1_1lammps__writer_1_1LammpsWriter.html#a4af2d74dd7d66ccecc1acee909ca0679" target="_top" xlink:title="ease4lmp.lammps_writer.Lammps\lWriter.get_improper_patterns">
<polygon fill="#ffffff" stroke="#000000" points="197,-.5 197,-30.5 362,-30.5 362,-.5 197,-.5"/>
<text text-anchor="start" x="205" y="-18.5" font-family="Helvetica,sans-Serif" font-size="10.00" fill="#000000">ease4lmp.lammps_writer.Lammps</text>
<text text-anchor="middle" x="279.5" y="-7.5" font-family="Helvetica,sans-Serif" font-size="10.00" fill="#000000">Writer.get_improper_patterns</text>
</a>
</g>
</g>
<!-- Node15&#45;&gt;Node19 -->
<g id="edge4" class="edge">
<title>Node15&#45;&gt;Node19</title>
<path fill="none" stroke="#191970" d="M123.8696,-69.4625C145.6267,-60.2121 172.5005,-49.2362 197,-40.5 206.5857,-37.0819 216.9,-33.7157 226.8794,-30.6151"/>
<polygon fill="#191970" stroke="#191970" points="122.3867,-66.29 114.571,-73.443 125.1415,-72.7252 122.3867,-66.29"/>
</g>
</g>
</svg>
