<?xml version="1.0" encoding="UTF-8" standalone="no"?>
<!DOCTYPE svg PUBLIC "-//W3C//DTD SVG 1.1//EN"
 "http://www.w3.org/Graphics/SVG/1.1/DTD/svg11.dtd">
<!-- Generated by graphviz version 2.40.1 (20161225.0304)
 -->
<!-- Title: ease4lmp.lammps_data.LammpsAtoms.set_data Pages: 1 -->
<svg width="366pt" height="88pt"
 viewBox="0.00 0.00 366.00 88.00" xmlns="http://www.w3.org/2000/svg" xmlns:xlink="http://www.w3.org/1999/xlink">
<g id="graph0" class="graph" transform="scale(1 1) rotate(0) translate(4 84)">
<title>ease4lmp.lammps_data.LammpsAtoms.set_data</title>
<polygon fill="#ffffff" stroke="transparent" points="-4,4 -4,-84 362,-84 362,4 -4,4"/>
<!-- Node9 -->
<g id="node1" class="node">
<title>Node9</title>
<polygon fill="#bfbfbf" stroke="#000000" points="0,-24.5 0,-54.5 161,-54.5 161,-24.5 0,-24.5"/>
<text text-anchor="start" x="8" y="-42.5" font-family="Helvetica,sans-Serif" font-size="10.00" fill="#000000">ease4lmp.lammps_data.Lammps</text>
<text text-anchor="middle" x="80.5" y="-31.5" font-family="Helvetica,sans-Serif" font-size="10.00" fill="#000000">Atoms.set_data</text>
</g>
<!-- Node10 -->
<g id="node2" class="node">
<title>Node10</title>
<g id="a_node2"><a xlink:href="classease4lmp_1_1lammps__data_1_1LammpsAtoms.html#ad26f4a1a178f5eb981a63548dec1f164" target="_top" xlink:title="ease4lmp.lammps_data.Lammps\lAtoms.write_lines">
<polygon fill="#ffffff" stroke="#000000" points="197,-49.5 197,-79.5 358,-79.5 358,-49.5 197,-49.5"/>
<text text-anchor="start" x="205" y="-67.5" font-family="Helvetica,sans-Serif" font-size="10.00" fill="#000000">ease4lmp.lammps_data.Lammps</text>
<text text-anchor="middle" x="277.5" y="-56.5" font-family="Helvetica,sans-Serif" font-size="10.00" fill="#000000">Atoms.write_lines</text>
</a>
</g>
</g>
<!-- Node9&#45;&gt;Node10 -->
<g id="edge1" class="edge">
<title>Node9&#45;&gt;Node10</title>
<path fill="none" stroke="#191970" d="M171.2155,-51.0121C179.7951,-52.1009 188.454,-53.1998 196.9296,-54.2753"/>
<polygon fill="#191970" stroke="#191970" points="171.5569,-47.5275 161.1959,-49.7406 170.6756,-54.4718 171.5569,-47.5275"/>
</g>
<!-- Node11 -->
<g id="node3" class="node">
<title>Node11</title>
<g id="a_node3"><a xlink:href="classease4lmp_1_1lammps__data_1_1LammpsAtoms.html#aeec7eada089931f586ea836aa5893898" target="_top" xlink:title="ease4lmp.lammps_data.Lammps\lAtoms.write_lines_for_molecule">
<polygon fill="#ffffff" stroke="#000000" points="197,-.5 197,-30.5 358,-30.5 358,-.5 197,-.5"/>
<text text-anchor="start" x="205" y="-18.5" font-family="Helvetica,sans-Serif" font-size="10.00" fill="#000000">ease4lmp.lammps_data.Lammps</text>
<text text-anchor="middle" x="277.5" y="-7.5" font-family="Helvetica,sans-Serif" font-size="10.00" fill="#000000">Atoms.write_lines_for_molecule</text>
</a>
</g>
</g>
<!-- Node9&#45;&gt;Node11 -->
<g id="edge2" class="edge">
<title>Node9&#45;&gt;Node11</title>
<path fill="none" stroke="#191970" d="M171.2155,-28.4484C179.7951,-27.4031 188.454,-26.3482 196.9296,-25.3157"/>
<polygon fill="#191970" stroke="#191970" points="170.6992,-24.9853 161.1959,-29.669 171.5458,-31.9339 170.6992,-24.9853"/>
</g>
</g>
</svg>
