<?xml version="1.0" encoding="UTF-8" standalone="no"?>
<!DOCTYPE svg PUBLIC "-//W3C//DTD SVG 1.1//EN"
 "http://www.w3.org/Graphics/SVG/1.1/DTD/svg11.dtd">
<!-- Generated by graphviz version 2.40.1 (20161225.0304)
 -->
<!-- Title: ease4lmp.lammps_writer.LammpsWriter.get_dihedral_patterns Pages: 1 -->
<svg width="374pt" height="88pt"
 viewBox="0.00 0.00 374.00 88.00" xmlns="http://www.w3.org/2000/svg" xmlns:xlink="http://www.w3.org/1999/xlink">
<g id="graph0" class="graph" transform="scale(1 1) rotate(0) translate(4 84)">
<title>ease4lmp.lammps_writer.LammpsWriter.get_dihedral_patterns</title>
<polygon fill="#ffffff" stroke="transparent" points="-4,4 -4,-84 370,-84 370,4 -4,4"/>
<!-- Node10 -->
<g id="node1" class="node">
<title>Node10</title>
<polygon fill="#bfbfbf" stroke="#000000" points="0,-24.5 0,-54.5 165,-54.5 165,-24.5 0,-24.5"/>
<text text-anchor="start" x="8" y="-42.5" font-family="Helvetica,sans-Serif" font-size="10.00" fill="#000000">ease4lmp.lammps_writer.Lammps</text>
<text text-anchor="middle" x="82.5" y="-31.5" font-family="Helvetica,sans-Serif" font-size="10.00" fill="#000000">Writer.get_dihedral_patterns</text>
</g>
<!-- Node11 -->
<g id="node2" class="node">
<title>Node11</title>
<g id="a_node2"><a xlink:href="classease4lmp_1_1lammps__data_1_1LammpsTopology.html#a3cb100afa6a270d02da6538a89a0aee8" target="_top" xlink:title="ease4lmp.lammps_data.Lammps\lTopology.get_sequence_patterns">
<polygon fill="#ffffff" stroke="#000000" points="203,-49.5 203,-79.5 364,-79.5 364,-49.5 203,-49.5"/>
<text text-anchor="start" x="211" y="-67.5" font-family="Helvetica,sans-Serif" font-size="10.00" fill="#000000">ease4lmp.lammps_data.Lammps</text>
<text text-anchor="middle" x="283.5" y="-56.5" font-family="Helvetica,sans-Serif" font-size="10.00" fill="#000000">Topology.get_sequence_patterns</text>
</a>
</g>
</g>
<!-- Node10&#45;&gt;Node11 -->
<g id="edge1" class="edge">
<title>Node10&#45;&gt;Node11</title>
<path fill="none" stroke="#191970" d="M165.1245,-49.7767C174.269,-50.9141 183.6174,-52.0768 192.8538,-53.2256"/>
<polygon fill="#191970" stroke="#191970" points="192.4618,-56.7037 202.8173,-54.4648 193.3258,-49.7572 192.4618,-56.7037"/>
</g>
<!-- Node12 -->
<g id="node3" class="node">
<title>Node12</title>
<g id="a_node3"><a xlink:href="classease4lmp_1_1lammps__writer_1_1LammpsWriter.html#aeed8be614f9b259011f8882a2c6c2be7" target="_top" xlink:title="ease4lmp.lammps_writer.Lammps\lWriter.get_sequence_patterns">
<polygon fill="#ffffff" stroke="#000000" points="201,-.5 201,-30.5 366,-30.5 366,-.5 201,-.5"/>
<text text-anchor="start" x="209" y="-18.5" font-family="Helvetica,sans-Serif" font-size="10.00" fill="#000000">ease4lmp.lammps_writer.Lammps</text>
<text text-anchor="middle" x="283.5" y="-7.5" font-family="Helvetica,sans-Serif" font-size="10.00" fill="#000000">Writer.get_sequence_patterns</text>
</a>
</g>
</g>
<!-- Node10&#45;&gt;Node12 -->
<g id="edge2" class="edge">
<title>Node10&#45;&gt;Node12</title>
<path fill="none" stroke="#191970" d="M165.1245,-29.6344C173.6075,-28.6215 182.266,-27.5876 190.8477,-26.563"/>
<polygon fill="#191970" stroke="#191970" points="191.357,-30.0271 200.8715,-25.3661 190.527,-23.0765 191.357,-30.0271"/>
</g>
</g>
</svg>
