<?xml version="1.0" encoding="UTF-8" standalone="no"?>
<!DOCTYPE svg PUBLIC "-//W3C//DTD SVG 1.1//EN"
 "http://www.w3.org/Graphics/SVG/1.1/DTD/svg11.dtd">
<!-- Generated by graphviz version 2.40.1 (20161225.0304)
 -->
<!-- Title: ease4lmp.lammps_data.LammpsSpecialBonds.get_maximum_per_atom Pages: 1 -->
<svg width="370pt" height="63pt"
 viewBox="0.00 0.00 370.00 62.50" xmlns="http://www.w3.org/2000/svg" xmlns:xlink="http://www.w3.org/1999/xlink">
<g id="graph0" class="graph" transform="scale(1 1) rotate(0) translate(4 58.5)">
<title>ease4lmp.lammps_data.LammpsSpecialBonds.get_maximum_per_atom</title>
<polygon fill="#ffffff" stroke="transparent" points="-4,4 -4,-58.5 366,-58.5 366,4 -4,4"/>
<!-- Node3 -->
<g id="node1" class="node">
<title>Node3</title>
<polygon fill="#bfbfbf" stroke="#000000" points="0,-.5 0,-41.5 161,-41.5 161,-.5 0,-.5"/>
<text text-anchor="start" x="8" y="-29.5" font-family="Helvetica,sans-Serif" font-size="10.00" fill="#000000">ease4lmp.lammps_data.Lammps</text>
<text text-anchor="start" x="8" y="-18.5" font-family="Helvetica,sans-Serif" font-size="10.00" fill="#000000">SpecialBonds.get_maximum</text>
<text text-anchor="middle" x="80.5" y="-7.5" font-family="Helvetica,sans-Serif" font-size="10.00" fill="#000000">_per_atom</text>
</g>
<!-- Node4 -->
<g id="node2" class="node">
<title>Node4</title>
<g id="a_node2"><a xlink:href="classease4lmp_1_1lammps__writer_1_1LammpsWriter.html#a527ecfba8091b26983b61bfc19260e2b" target="_top" xlink:title="This method returns the maximum number of topologies (given by key) per atom. ">
<polygon fill="#ffffff" stroke="#000000" points="197,-6 197,-36 362,-36 362,-6 197,-6"/>
<text text-anchor="start" x="205" y="-24" font-family="Helvetica,sans-Serif" font-size="10.00" fill="#000000">ease4lmp.lammps_writer.Lammps</text>
<text text-anchor="middle" x="279.5" y="-13" font-family="Helvetica,sans-Serif" font-size="10.00" fill="#000000">Writer.get_maximum_per_atom</text>
</a>
</g>
</g>
<!-- Node3&#45;&gt;Node4 -->
<g id="edge1" class="edge">
<title>Node3&#45;&gt;Node4</title>
<path fill="none" stroke="#191970" d="M171.4124,-21C179.87,-21 188.4109,-21 196.7883,-21"/>
<polygon fill="#191970" stroke="#191970" points="171.1541,-17.5001 161.154,-21 171.154,-24.5001 171.1541,-17.5001"/>
</g>
<!-- Node4&#45;&gt;Node4 -->
<g id="edge2" class="edge">
<title>Node4&#45;&gt;Node4</title>
<path fill="none" stroke="#191970" d="M244.3178,-46.4579C248.6844,-51.179 260.4118,-54.5 279.5,-54.5 310.8242,-54.5 322.3261,-45.5566 314.0056,-36.159"/>
<polygon fill="#191970" stroke="#191970" points="247.8312,-46.367 244.9944,-36.159 240.8463,-45.908 247.8312,-46.367"/>
</g>
</g>
</svg>
