<?xml version="1.0" encoding="UTF-8" standalone="no"?>
<!DOCTYPE svg PUBLIC "-//W3C//DTD SVG 1.1//EN"
 "http://www.w3.org/Graphics/SVG/1.1/DTD/svg11.dtd">
<!-- Generated by graphviz version 2.40.1 (20161225.0304)
 -->
<!-- Title: ease4lmp.lammps_data.LammpsTopology Pages: 1 -->
<!--zoomable 347 -->
<svg id="main" version="1.1" xmlns="http://www.w3.org/2000/svg" xmlns:xlink="http://www.w3.org/1999/xlink" xml:space="preserve" onload="init(evt)">
<style type="text/css"><![CDATA[
.edge:hover path { stroke: red; }
.edge:hover polygon { stroke: red; fill: red; }
]]></style>
<script type="text/javascript"><![CDATA[
var edges = document.getElementsByTagName('g');
if (edges && edges.length) {
  for (var i=0;i<edges.length;i++) {
    if (edges[i].id.substr(0,4)=='edge') {
      edges[i].setAttribute('class','edge');
    }
  }
}
]]></script>
        <defs>
                <circle id="rim" cx="0" cy="0" r="7"/>
                <circle id="rim2" cx="0" cy="0" r="3.5"/>
                <g id="zoomPlus">
                        <use xlink:href="#rim" fill="#404040">
                                <set attributeName="fill" to="#808080" begin="zoomplus.mouseover" end="zoomplus.mouseout"/>
                        </use>
                        <path d="M-4,0h8M0,-4v8" fill="none" stroke="white" stroke-width="1.5" pointer-events="none"/>
                </g>
                <g id="zoomMin">
                        <use xlink:href="#rim" fill="#404040">
                                <set attributeName="fill" to="#808080" begin="zoomminus.mouseover" end="zoomminus.mouseout"/>
                        </use>
                        <path d="M-4,0h8" fill="none" stroke="white" stroke-width="1.5" pointer-events="none"/>
                </g>
                <g id="dirArrow">
                        <path fill="none" stroke="white" stroke-width="1.5" d="M0,-3.0v7 M-2.5,-0.5L0,-3.0L2.5,-0.5"/>
                </g>
               <g id="resetDef">
                       <use xlink:href="#rim2" fill="#404040">
                               <set attributeName="fill" to="#808080" begin="reset.mouseover" end="reset.mouseout"/>
                       </use>
               </g>
        </defs>

<script type="text/javascript">
var viewWidth = 706;
var viewHeight = 347;
var sectionId = 'dynsection-0';
</script>
<script xlink:href="svgpan.js"/>
<svg id="graph" class="graph">
<g id="viewport">
<title>ease4lmp.lammps_data.LammpsTopology</title>
<polygon fill="#ffffff" stroke="transparent" points="-4,4 -4,-343 702,-343 702,4 -4,4"/>
<!-- Node0 -->
<g id="node1" class="node">
<title>Node0</title>
<polygon fill="#bfbfbf" stroke="#000000" points="268,-116.5 268,-338.5 429,-338.5 429,-116.5 268,-116.5"/>
<text text-anchor="start" x="276" y="-326.5" font-family="Helvetica,sans-Serif" font-size="10.00" fill="#000000">ease4lmp.lammps_data.Lammps</text>
<text text-anchor="middle" x="348.5" y="-315.5" font-family="Helvetica,sans-Serif" font-size="10.00" fill="#000000">Topology</text>
<polyline fill="none" stroke="#000000" points="268,-308.5 429,-308.5 "/>
<text text-anchor="start" x="276" y="-296.5" font-family="Helvetica,sans-Serif" font-size="10.00" fill="#000000">&#45; _sequences</text>
<text text-anchor="start" x="276" y="-285.5" font-family="Helvetica,sans-Serif" font-size="10.00" fill="#000000">&#45; _num</text>
<text text-anchor="start" x="276" y="-274.5" font-family="Helvetica,sans-Serif" font-size="10.00" fill="#000000">&#45; _datanames</text>
<text text-anchor="start" x="276" y="-263.5" font-family="Helvetica,sans-Serif" font-size="10.00" fill="#000000">&#45; _lines</text>
<text text-anchor="start" x="276" y="-252.5" font-family="Helvetica,sans-Serif" font-size="10.00" fill="#000000">&#45; _data</text>
<text text-anchor="start" x="276" y="-241.5" font-family="Helvetica,sans-Serif" font-size="10.00" fill="#000000">&#45; _num_type</text>
<polyline fill="none" stroke="#000000" points="268,-234.5 429,-234.5 "/>
<text text-anchor="start" x="276" y="-222.5" font-family="Helvetica,sans-Serif" font-size="10.00" fill="#000000">+ __init__()</text>
<text text-anchor="start" x="276" y="-211.5" font-family="Helvetica,sans-Serif" font-size="10.00" fill="#000000">+ get_num()</text>
<text text-anchor="start" x="276" y="-200.5" font-family="Helvetica,sans-Serif" font-size="10.00" fill="#000000">+ get_num_type()</text>
<text text-anchor="start" x="276" y="-189.5" font-family="Helvetica,sans-Serif" font-size="10.00" fill="#000000">+ get_sequence_patterns()</text>
<text text-anchor="start" x="276" y="-178.5" font-family="Helvetica,sans-Serif" font-size="10.00" fill="#000000">+ get_maximum_per_atom()</text>
<text text-anchor="start" x="276" y="-167.5" font-family="Helvetica,sans-Serif" font-size="10.00" fill="#000000">+ set_types()</text>
<text text-anchor="start" x="276" y="-156.5" font-family="Helvetica,sans-Serif" font-size="10.00" fill="#000000">+ write_lines()</text>
<text text-anchor="start" x="276" y="-145.5" font-family="Helvetica,sans-Serif" font-size="10.00" fill="#000000">+ create()</text>
<text text-anchor="start" x="276" y="-134.5" font-family="Helvetica,sans-Serif" font-size="10.00" fill="#000000">&#45; _make_full_seq_to_type()</text>
<text text-anchor="start" x="276" y="-123.5" font-family="Helvetica,sans-Serif" font-size="10.00" fill="#000000">&#45; _set_data()</text>
</g>
<!-- Node1 -->
<g id="node2" class="node">
<title>Node1</title>
<g id="a_node2"><a xlink:href="classease4lmp_1_1lammps__data_1_1LammpsAngles.html" target="_top" xlink:title="This class is an interface to write Angles section in Lammps data file (or molecule file)...">
<polygon fill="#ffffff" stroke="#000000" points="0,-6 0,-74 161,-74 161,-6 0,-6"/>
<text text-anchor="start" x="8" y="-62" font-family="Helvetica,sans-Serif" font-size="10.00" fill="#000000">ease4lmp.lammps_data.Lammps</text>
<text text-anchor="middle" x="80.5" y="-51" font-family="Helvetica,sans-Serif" font-size="10.00" fill="#000000">Angles</text>
<polyline fill="none" stroke="#000000" points="0,-44 161,-44 "/>
<text text-anchor="middle" x="80.5" y="-32" font-family="Helvetica,sans-Serif" font-size="10.00" fill="#000000"> </text>
<polyline fill="none" stroke="#000000" points="0,-25 161,-25 "/>
<text text-anchor="middle" x="80.5" y="-13" font-family="Helvetica,sans-Serif" font-size="10.00" fill="#000000"> </text>
</a>
</g>
</g>
<!-- Node0&#45;&gt;Node1 -->
<g id="edge1" class="edge">
<title>Node0&#45;&gt;Node1</title>
<path fill="none" stroke="#191970" d="M259.425,-165.1808C215.9947,-134.7957 165.4442,-99.4292 129.1742,-74.0538"/>
<polygon fill="none" stroke="#191970" points="257.5275,-168.1248 267.7277,-170.9895 261.5404,-162.3891 257.5275,-168.1248"/>
</g>
<!-- Node2 -->
<g id="node3" class="node">
<title>Node2</title>
<g id="a_node3"><a xlink:href="classease4lmp_1_1lammps__data_1_1LammpsBonds.html" target="_top" xlink:title="This class is an interface to write Bonds section in Lammps data file (or molecule file)...">
<polygon fill="#ffffff" stroke="#000000" points="179,-6 179,-74 340,-74 340,-6 179,-6"/>
<text text-anchor="start" x="187" y="-62" font-family="Helvetica,sans-Serif" font-size="10.00" fill="#000000">ease4lmp.lammps_data.Lammps</text>
<text text-anchor="middle" x="259.5" y="-51" font-family="Helvetica,sans-Serif" font-size="10.00" fill="#000000">Bonds</text>
<polyline fill="none" stroke="#000000" points="179,-44 340,-44 "/>
<text text-anchor="middle" x="259.5" y="-32" font-family="Helvetica,sans-Serif" font-size="10.00" fill="#000000"> </text>
<polyline fill="none" stroke="#000000" points="179,-25 340,-25 "/>
<text text-anchor="start" x="187" y="-13" font-family="Helvetica,sans-Serif" font-size="10.00" fill="#000000">+ get_maximum_per_atom()</text>
</a>
</g>
</g>
<!-- Node0&#45;&gt;Node2 -->
<g id="edge2" class="edge">
<title>Node0&#45;&gt;Node2</title>
<path fill="none" stroke="#191970" d="M291.3193,-107.0351C285.6584,-95.109 280.2962,-83.8122 275.643,-74.0092"/>
<polygon fill="none" stroke="#191970" points="288.2497,-108.7303 295.6997,-116.2634 294.5734,-105.7286 288.2497,-108.7303"/>
</g>
<!-- Node3 -->
<g id="node4" class="node">
<title>Node3</title>
<g id="a_node4"><a xlink:href="classease4lmp_1_1lammps__data_1_1LammpsDihedrals.html" target="_top" xlink:title="This class is an interface to write Dihedrals section in Lammps data file (or molecule file)...">
<polygon fill="#ffffff" stroke="#000000" points="358,-6 358,-74 519,-74 519,-6 358,-6"/>
<text text-anchor="start" x="366" y="-62" font-family="Helvetica,sans-Serif" font-size="10.00" fill="#000000">ease4lmp.lammps_data.Lammps</text>
<text text-anchor="middle" x="438.5" y="-51" font-family="Helvetica,sans-Serif" font-size="10.00" fill="#000000">Dihedrals</text>
<polyline fill="none" stroke="#000000" points="358,-44 519,-44 "/>
<text text-anchor="middle" x="438.5" y="-32" font-family="Helvetica,sans-Serif" font-size="10.00" fill="#000000"> </text>
<polyline fill="none" stroke="#000000" points="358,-25 519,-25 "/>
<text text-anchor="middle" x="438.5" y="-13" font-family="Helvetica,sans-Serif" font-size="10.00" fill="#000000"> </text>
</a>
</g>
</g>
<!-- Node0&#45;&gt;Node3 -->
<g id="edge3" class="edge">
<title>Node0&#45;&gt;Node3</title>
<path fill="none" stroke="#191970" d="M406.3232,-107.0351C412.0477,-95.109 417.4701,-83.8122 422.1756,-74.0092"/>
<polygon fill="none" stroke="#191970" points="403.0656,-105.7336 401.8936,-116.2634 409.3763,-108.7628 403.0656,-105.7336"/>
</g>
<!-- Node4 -->
<g id="node5" class="node">
<title>Node4</title>
<g id="a_node5"><a xlink:href="classease4lmp_1_1lammps__data_1_1LammpsImpropers.html" target="_top" xlink:title="This class is an interface to write Impropers section in Lammps data file (or molecule file)...">
<polygon fill="#ffffff" stroke="#000000" points="537,-.5 537,-79.5 698,-79.5 698,-.5 537,-.5"/>
<text text-anchor="start" x="545" y="-67.5" font-family="Helvetica,sans-Serif" font-size="10.00" fill="#000000">ease4lmp.lammps_data.Lammps</text>
<text text-anchor="middle" x="617.5" y="-56.5" font-family="Helvetica,sans-Serif" font-size="10.00" fill="#000000">Impropers</text>
<polyline fill="none" stroke="#000000" points="537,-49.5 698,-49.5 "/>
<text text-anchor="start" x="545" y="-37.5" font-family="Helvetica,sans-Serif" font-size="10.00" fill="#000000">&#45; _class2</text>
<polyline fill="none" stroke="#000000" points="537,-30.5 698,-30.5 "/>
<text text-anchor="start" x="545" y="-18.5" font-family="Helvetica,sans-Serif" font-size="10.00" fill="#000000">+ __init__()</text>
<text text-anchor="start" x="545" y="-7.5" font-family="Helvetica,sans-Serif" font-size="10.00" fill="#000000">&#45; _make_full_seq_to_type()</text>
</a>
</g>
</g>
<!-- Node0&#45;&gt;Node4 -->
<g id="edge4" class="edge">
<title>Node0&#45;&gt;Node4</title>
<path fill="none" stroke="#191970" d="M437.5087,-165.4586C478.1263,-137.1471 525.018,-104.4624 560.7551,-79.5527"/>
<polygon fill="none" stroke="#191970" points="435.4113,-162.6542 429.2089,-171.2438 439.4141,-168.3969 435.4113,-162.6542"/>
</g>
</g>
</svg>
        <g id="navigator" transform="translate(0 0)" fill="#404254">
                <rect fill="#f2f5e9" fill-opacity="0.5" stroke="#606060" stroke-width=".5" x="0" y="0" width="60" height="60"/>
                <use id="zoomplus" xlink:href="#zoomPlus" x="17" y="9" onmousedown="handleZoom(evt,'in')"/>
                <use id="zoomminus" xlink:href="#zoomMin" x="42" y="9" onmousedown="handleZoom(evt,'out')"/>
                <use id="reset" xlink:href="#resetDef" x="30" y="36" onmousedown="handleReset()"/>
                <g id="arrowUp" xlink:href="#dirArrow" transform="translate(30 24)" onmousedown="handlePan(0,-1)">
                  <use xlink:href="#rim" fill="#404040">
                        <set attributeName="fill" to="#808080" begin="arrowUp.mouseover" end="arrowUp.mouseout"/>
                  </use>
                  <path fill="none" stroke="white" stroke-width="1.5" d="M0,-3.0v7 M-2.5,-0.5L0,-3.0L2.5,-0.5"/>
                </g>
                <g id="arrowRight" xlink:href="#dirArrow" transform="rotate(90) translate(36 -43)" onmousedown="handlePan(1,0)">
                  <use xlink:href="#rim" fill="#404040">
                        <set attributeName="fill" to="#808080" begin="arrowRight.mouseover" end="arrowRight.mouseout"/>
                  </use>
                  <path fill="none" stroke="white" stroke-width="1.5" d="M0,-3.0v7 M-2.5,-0.5L0,-3.0L2.5,-0.5"/>
                </g>
                <g id="arrowDown" xlink:href="#dirArrow" transform="rotate(180) translate(-30 -48)" onmousedown="handlePan(0,1)">
                  <use xlink:href="#rim" fill="#404040">
                        <set attributeName="fill" to="#808080" begin="arrowDown.mouseover" end="arrowDown.mouseout"/>
                  </use>
                  <path fill="none" stroke="white" stroke-width="1.5" d="M0,-3.0v7 M-2.5,-0.5L0,-3.0L2.5,-0.5"/>
                </g>
                <g id="arrowLeft" xlink:href="#dirArrow" transform="rotate(270) translate(-36 17)" onmousedown="handlePan(-1,0)">
                  <use xlink:href="#rim" fill="#404040">
                        <set attributeName="fill" to="#808080" begin="arrowLeft.mouseover" end="arrowLeft.mouseout"/>
                  </use>
                  <path fill="none" stroke="white" stroke-width="1.5" d="M0,-3.0v7 M-2.5,-0.5L0,-3.0L2.5,-0.5"/>
                </g>
        </g>
        <svg viewBox="0 0 15 15" width="100%" height="30px" preserveAspectRatio="xMaxYMin meet">
         <g id="arrow_out" transform="scale(0.3 0.3)">
          <a xlink:href="classease4lmp_1_1lammps__data_1_1LammpsTopology__inherit__graph_org.svg" target="_base">
           <rect id="button" ry="5" rx="5" y="6" x="6" height="38" width="38"
                fill="#f2f5e9" fill-opacity="0.5" stroke="#606060" stroke-width="1.0"/>
           <path id="arrow"
             d="M 11.500037,31.436501 C 11.940474,20.09759 22.043105,11.32322 32.158766,21.979434 L 37.068811,17.246167 C 37.068811,17.246167 37.088388,32 37.088388,32 L 22.160133,31.978069 C 22.160133,31.978069 26.997745,27.140456 26.997745,27.140456 C 18.528582,18.264221 13.291696,25.230495 11.500037,31.436501 z"
             style="fill:#404040;"/>
          </a>
         </g>
        </svg>
</svg>
