<?xml version="1.0" encoding="UTF-8" standalone="no"?>
<!DOCTYPE svg PUBLIC "-//W3C//DTD SVG 1.1//EN"
 "http://www.w3.org/Graphics/SVG/1.1/DTD/svg11.dtd">
<!-- Generated by graphviz version 2.40.1 (20161225.0304)
 -->
<!-- Title: ease4lmp.lammps_data.LammpsTopology._make_full_seq_to_type Pages: 1 -->
<svg width="366pt" height="50pt"
 viewBox="0.00 0.00 366.00 50.00" xmlns="http://www.w3.org/2000/svg" xmlns:xlink="http://www.w3.org/1999/xlink">
<g id="graph0" class="graph" transform="scale(1 1) rotate(0) translate(4 46)">
<title>ease4lmp.lammps_data.LammpsTopology._make_full_seq_to_type</title>
<polygon fill="#ffffff" stroke="transparent" points="-4,4 -4,-46 362,-46 362,4 -4,4"/>
<!-- Node4 -->
<g id="node1" class="node">
<title>Node4</title>
<polygon fill="#bfbfbf" stroke="#000000" points="0,-.5 0,-41.5 161,-41.5 161,-.5 0,-.5"/>
<text text-anchor="start" x="8" y="-29.5" font-family="Helvetica,sans-Serif" font-size="10.00" fill="#000000">ease4lmp.lammps_data.Lammps</text>
<text text-anchor="start" x="8" y="-18.5" font-family="Helvetica,sans-Serif" font-size="10.00" fill="#000000">Topology._make_full_seq</text>
<text text-anchor="middle" x="80.5" y="-7.5" font-family="Helvetica,sans-Serif" font-size="10.00" fill="#000000">_to_type</text>
</g>
<!-- Node5 -->
<g id="node2" class="node">
<title>Node5</title>
<g id="a_node2"><a xlink:href="classease4lmp_1_1lammps__data_1_1LammpsTopology.html#a5e7253de672072ff221396bf2bd2f131" target="_top" xlink:title="This method set types to topologies. ">
<polygon fill="#ffffff" stroke="#000000" points="197,-6 197,-36 358,-36 358,-6 197,-6"/>
<text text-anchor="start" x="205" y="-24" font-family="Helvetica,sans-Serif" font-size="10.00" fill="#000000">ease4lmp.lammps_data.Lammps</text>
<text text-anchor="middle" x="277.5" y="-13" font-family="Helvetica,sans-Serif" font-size="10.00" fill="#000000">Topology.set_types</text>
</a>
</g>
</g>
<!-- Node4&#45;&gt;Node5 -->
<g id="edge1" class="edge">
<title>Node4&#45;&gt;Node5</title>
<path fill="none" stroke="#191970" d="M171.2155,-21C179.7951,-21 188.454,-21 196.9296,-21"/>
<polygon fill="#191970" stroke="#191970" points="171.1959,-17.5001 161.1959,-21 171.1958,-24.5001 171.1959,-17.5001"/>
</g>
</g>
</svg>
