<?xml version="1.0" encoding="UTF-8" standalone="no"?>
<!DOCTYPE svg PUBLIC "-//W3C//DTD SVG 1.1//EN"
 "http://www.w3.org/Graphics/SVG/1.1/DTD/svg11.dtd">
<!-- Generated by graphviz version 2.40.1 (20161225.0304)
 -->
<!-- Title: ease4lmp.lammps_writer.LammpsWriter.set_topology_types Pages: 1 -->
<svg width="374pt" height="186pt"
 viewBox="0.00 0.00 374.00 186.00" xmlns="http://www.w3.org/2000/svg" xmlns:xlink="http://www.w3.org/1999/xlink">
<g id="graph0" class="graph" transform="scale(1 1) rotate(0) translate(4 182)">
<title>ease4lmp.lammps_writer.LammpsWriter.set_topology_types</title>
<polygon fill="#ffffff" stroke="transparent" points="-4,4 -4,-182 370,-182 370,4 -4,4"/>
<!-- Node68 -->
<g id="node1" class="node">
<title>Node68</title>
<polygon fill="#bfbfbf" stroke="#000000" points="0,-73.5 0,-103.5 165,-103.5 165,-73.5 0,-73.5"/>
<text text-anchor="start" x="8" y="-91.5" font-family="Helvetica,sans-Serif" font-size="10.00" fill="#000000">ease4lmp.lammps_writer.Lammps</text>
<text text-anchor="middle" x="82.5" y="-80.5" font-family="Helvetica,sans-Serif" font-size="10.00" fill="#000000">Writer.set_topology_types</text>
</g>
<!-- Node69 -->
<g id="node2" class="node">
<title>Node69</title>
<g id="a_node2"><a xlink:href="classease4lmp_1_1lammps__writer_1_1LammpsWriter.html#a9d95170d848d1496a504d43ca7f0d549" target="_top" xlink:title="ease4lmp.lammps_writer.Lammps\lWriter.set_bond_types">
<polygon fill="#ffffff" stroke="#000000" points="201,-147.5 201,-177.5 366,-177.5 366,-147.5 201,-147.5"/>
<text text-anchor="start" x="209" y="-165.5" font-family="Helvetica,sans-Serif" font-size="10.00" fill="#000000">ease4lmp.lammps_writer.Lammps</text>
<text text-anchor="middle" x="283.5" y="-154.5" font-family="Helvetica,sans-Serif" font-size="10.00" fill="#000000">Writer.set_bond_types</text>
</a>
</g>
</g>
<!-- Node68&#45;&gt;Node69 -->
<g id="edge1" class="edge">
<title>Node68&#45;&gt;Node69</title>
<path fill="none" stroke="#191970" d="M124.5369,-107.6433C146.9819,-117.5053 175.2233,-129.3474 201,-138.5 209.7152,-141.5945 219.0481,-144.5979 228.1881,-147.3727"/>
<polygon fill="#191970" stroke="#191970" points="125.8574,-104.4003 115.2966,-103.5516 123.0231,-110.8008 125.8574,-104.4003"/>
</g>
<!-- Node70 -->
<g id="node3" class="node">
<title>Node70</title>
<g id="a_node3"><a xlink:href="classease4lmp_1_1lammps__writer_1_1LammpsWriter.html#a02d7ca656aac1b31833f8b4aab138e14" target="_top" xlink:title="ease4lmp.lammps_writer.Lammps\lWriter.set_angle_types">
<polygon fill="#ffffff" stroke="#000000" points="201,-98.5 201,-128.5 366,-128.5 366,-98.5 201,-98.5"/>
<text text-anchor="start" x="209" y="-116.5" font-family="Helvetica,sans-Serif" font-size="10.00" fill="#000000">ease4lmp.lammps_writer.Lammps</text>
<text text-anchor="middle" x="283.5" y="-105.5" font-family="Helvetica,sans-Serif" font-size="10.00" fill="#000000">Writer.set_angle_types</text>
</a>
</g>
</g>
<!-- Node68&#45;&gt;Node70 -->
<g id="edge2" class="edge">
<title>Node68&#45;&gt;Node70</title>
<path fill="none" stroke="#191970" d="M175.1483,-100.0234C183.73,-101.0908 192.3885,-102.1677 200.8715,-103.2228"/>
<polygon fill="#191970" stroke="#191970" points="175.4801,-96.5378 165.1245,-98.7767 174.616,-103.4843 175.4801,-96.5378"/>
</g>
<!-- Node71 -->
<g id="node4" class="node">
<title>Node71</title>
<g id="a_node4"><a xlink:href="classease4lmp_1_1lammps__writer_1_1LammpsWriter.html#a26726d49d422629ee6e51c45796c6442" target="_top" xlink:title="ease4lmp.lammps_writer.Lammps\lWriter.set_dihedral_types">
<polygon fill="#ffffff" stroke="#000000" points="201,-49.5 201,-79.5 366,-79.5 366,-49.5 201,-49.5"/>
<text text-anchor="start" x="209" y="-67.5" font-family="Helvetica,sans-Serif" font-size="10.00" fill="#000000">ease4lmp.lammps_writer.Lammps</text>
<text text-anchor="middle" x="283.5" y="-56.5" font-family="Helvetica,sans-Serif" font-size="10.00" fill="#000000">Writer.set_dihedral_types</text>
</a>
</g>
</g>
<!-- Node68&#45;&gt;Node71 -->
<g id="edge3" class="edge">
<title>Node68&#45;&gt;Node71</title>
<path fill="none" stroke="#191970" d="M175.1483,-77.4375C183.73,-76.4128 192.3885,-75.379 200.8715,-74.3661"/>
<polygon fill="#191970" stroke="#191970" points="174.639,-73.9734 165.1245,-78.6344 175.469,-80.924 174.639,-73.9734"/>
</g>
<!-- Node72 -->
<g id="node5" class="node">
<title>Node72</title>
<g id="a_node5"><a xlink:href="classease4lmp_1_1lammps__writer_1_1LammpsWriter.html#a25faedf894ab51bf189ebfc809e8e0e4" target="_top" xlink:title="ease4lmp.lammps_writer.Lammps\lWriter.set_improper_types">
<polygon fill="#ffffff" stroke="#000000" points="201,-.5 201,-30.5 366,-30.5 366,-.5 201,-.5"/>
<text text-anchor="start" x="209" y="-18.5" font-family="Helvetica,sans-Serif" font-size="10.00" fill="#000000">ease4lmp.lammps_writer.Lammps</text>
<text text-anchor="middle" x="283.5" y="-7.5" font-family="Helvetica,sans-Serif" font-size="10.00" fill="#000000">Writer.set_improper_types</text>
</a>
</g>
</g>
<!-- Node68&#45;&gt;Node72 -->
<g id="edge4" class="edge">
<title>Node68&#45;&gt;Node72</title>
<path fill="none" stroke="#191970" d="M126.6436,-69.5092C148.7815,-60.2702 176.1142,-49.2904 201,-40.5 210.737,-37.0606 221.2185,-33.6591 231.3359,-30.5249"/>
<polygon fill="#191970" stroke="#191970" points="125.0458,-66.3841 117.1817,-73.4837 127.7568,-72.8378 125.0458,-66.3841"/>
</g>
</g>
</svg>
