<?xml version="1.0" encoding="UTF-8" standalone="no"?>
<!DOCTYPE svg PUBLIC "-//W3C//DTD SVG 1.1//EN"
 "http://www.w3.org/Graphics/SVG/1.1/DTD/svg11.dtd">
<!-- Generated by graphviz version 2.40.1 (20161225.0304)
 -->
<!-- Title: ease4lmp.bonded_atoms.BondedAtoms._get_available_bond_index Pages: 1 -->
<svg width="370pt" height="39pt"
 viewBox="0.00 0.00 370.00 39.00" xmlns="http://www.w3.org/2000/svg" xmlns:xlink="http://www.w3.org/1999/xlink">
<g id="graph0" class="graph" transform="scale(1 1) rotate(0) translate(4 35)">
<title>ease4lmp.bonded_atoms.BondedAtoms._get_available_bond_index</title>
<polygon fill="#ffffff" stroke="transparent" points="-4,4 -4,-35 366,-35 366,4 -4,4"/>
<!-- Node8 -->
<g id="node1" class="node">
<title>Node8</title>
<polygon fill="#bfbfbf" stroke="#000000" points="0,-.5 0,-30.5 165,-30.5 165,-.5 0,-.5"/>
<text text-anchor="start" x="8" y="-18.5" font-family="Helvetica,sans-Serif" font-size="10.00" fill="#000000">ease4lmp.bonded_atoms.Bonded</text>
<text text-anchor="middle" x="82.5" y="-7.5" font-family="Helvetica,sans-Serif" font-size="10.00" fill="#000000">Atoms._get_available_bond_index</text>
</g>
<!-- Node9 -->
<g id="node2" class="node">
<title>Node9</title>
<g id="a_node2"><a xlink:href="classease4lmp_1_1bonded__atoms_1_1BondedAtoms.html#ab1e2adc1708633c55263471f6ee4fbbd" target="_top" xlink:title="ease4lmp.bonded_atoms.Bonded\lAtoms.add_bond">
<polygon fill="#ffffff" stroke="#000000" points="201,-.5 201,-30.5 362,-30.5 362,-.5 201,-.5"/>
<text text-anchor="start" x="209" y="-18.5" font-family="Helvetica,sans-Serif" font-size="10.00" fill="#000000">ease4lmp.bonded_atoms.Bonded</text>
<text text-anchor="middle" x="281.5" y="-7.5" font-family="Helvetica,sans-Serif" font-size="10.00" fill="#000000">Atoms.add_bond</text>
</a>
</g>
</g>
<!-- Node8&#45;&gt;Node9 -->
<g id="edge1" class="edge">
<title>Node8&#45;&gt;Node9</title>
<path fill="none" stroke="#191970" d="M175.416,-15.5C183.8591,-15.5 192.3658,-15.5 200.6913,-15.5"/>
<polygon fill="#191970" stroke="#191970" points="175.1651,-12.0001 165.1651,-15.5 175.1651,-19.0001 175.1651,-12.0001"/>
</g>
</g>
</svg>
