<?xml version="1.0" encoding="UTF-8" standalone="no"?>
<!DOCTYPE svg PUBLIC "-//W3C//DTD SVG 1.1//EN"
 "http://www.w3.org/Graphics/SVG/1.1/DTD/svg11.dtd">
<!-- Generated by graphviz version 2.40.1 (20161225.0304)
 -->
<!-- Title: ease4lmp.bonded_atoms.BondedAtoms.get_bonds_per_atom Pages: 1 -->
<svg width="366pt" height="186pt"
 viewBox="0.00 0.00 366.00 186.00" xmlns="http://www.w3.org/2000/svg" xmlns:xlink="http://www.w3.org/1999/xlink">
<g id="graph0" class="graph" transform="scale(1 1) rotate(0) translate(4 182)">
<title>ease4lmp.bonded_atoms.BondedAtoms.get_bonds_per_atom</title>
<polygon fill="#ffffff" stroke="transparent" points="-4,4 -4,-182 362,-182 362,4 -4,4"/>
<!-- Node37 -->
<g id="node1" class="node">
<title>Node37</title>
<polygon fill="#bfbfbf" stroke="#000000" points="0,-73.5 0,-103.5 161,-103.5 161,-73.5 0,-73.5"/>
<text text-anchor="start" x="8" y="-91.5" font-family="Helvetica,sans-Serif" font-size="10.00" fill="#000000">ease4lmp.bonded_atoms.Bonded</text>
<text text-anchor="middle" x="80.5" y="-80.5" font-family="Helvetica,sans-Serif" font-size="10.00" fill="#000000">Atoms.get_bonds_per_atom</text>
</g>
<!-- Node38 -->
<g id="node2" class="node">
<title>Node38</title>
<g id="a_node2"><a xlink:href="classease4lmp_1_1bonded__atoms_1_1BondedAtoms.html#add9ac0b8ffdbb82612082922f937331e" target="_top" xlink:title="This method gets an array of 2&#45;membered sequence of atom&#45;index representing bonds. ">
<polygon fill="#ffffff" stroke="#000000" points="197,-147.5 197,-177.5 358,-177.5 358,-147.5 197,-147.5"/>
<text text-anchor="start" x="205" y="-165.5" font-family="Helvetica,sans-Serif" font-size="10.00" fill="#000000">ease4lmp.bonded_atoms.Bonded</text>
<text text-anchor="middle" x="277.5" y="-154.5" font-family="Helvetica,sans-Serif" font-size="10.00" fill="#000000">Atoms.get_bonded_bonds</text>
</a>
</g>
</g>
<!-- Node37&#45;&gt;Node38 -->
<g id="edge1" class="edge">
<title>Node37&#45;&gt;Node38</title>
<path fill="none" stroke="#191970" d="M122.1167,-107.7499C144.1331,-117.5784 171.7635,-129.3572 197,-138.5 205.6382,-141.6295 214.9001,-144.6722 223.9555,-147.4813"/>
<polygon fill="#191970" stroke="#191970" points="123.2929,-104.4412 112.7374,-103.5296 120.4206,-110.8248 123.2929,-104.4412"/>
</g>
<!-- Node39 -->
<g id="node3" class="node">
<title>Node39</title>
<g id="a_node3"><a xlink:href="classease4lmp_1_1bonded__atoms_1_1BondedAtoms.html#ae487040df8952e36a650af23933534e0" target="_top" xlink:title="This method gets an array of 3&#45;membered sequence of atom&#45;index representing angles. ">
<polygon fill="#ffffff" stroke="#000000" points="197,-98.5 197,-128.5 358,-128.5 358,-98.5 197,-98.5"/>
<text text-anchor="start" x="205" y="-116.5" font-family="Helvetica,sans-Serif" font-size="10.00" fill="#000000">ease4lmp.bonded_atoms.Bonded</text>
<text text-anchor="middle" x="277.5" y="-105.5" font-family="Helvetica,sans-Serif" font-size="10.00" fill="#000000">Atoms.get_bonded_angles</text>
</a>
</g>
</g>
<!-- Node37&#45;&gt;Node39 -->
<g id="edge2" class="edge">
<title>Node37&#45;&gt;Node39</title>
<path fill="none" stroke="#191970" d="M171.2155,-100.0121C179.7951,-101.1009 188.454,-102.1998 196.9296,-103.2753"/>
<polygon fill="#191970" stroke="#191970" points="171.5569,-96.5275 161.1959,-98.7406 170.6756,-103.4718 171.5569,-96.5275"/>
</g>
<!-- Node40 -->
<g id="node4" class="node">
<title>Node40</title>
<g id="a_node4"><a xlink:href="classease4lmp_1_1bonded__atoms_1_1BondedAtoms.html#aa9af3869b339a783541079b574bf73b5" target="_top" xlink:title="This method gets an array of 4&#45;membered sequence of atom&#45;index representing dihedrals. ">
<polygon fill="#ffffff" stroke="#000000" points="197,-49.5 197,-79.5 358,-79.5 358,-49.5 197,-49.5"/>
<text text-anchor="start" x="205" y="-67.5" font-family="Helvetica,sans-Serif" font-size="10.00" fill="#000000">ease4lmp.bonded_atoms.Bonded</text>
<text text-anchor="middle" x="277.5" y="-56.5" font-family="Helvetica,sans-Serif" font-size="10.00" fill="#000000">Atoms.get_bonded_dihedrals</text>
</a>
</g>
</g>
<!-- Node37&#45;&gt;Node40 -->
<g id="edge3" class="edge">
<title>Node37&#45;&gt;Node40</title>
<path fill="none" stroke="#191970" d="M171.2155,-77.4484C179.7951,-76.4031 188.454,-75.3482 196.9296,-74.3157"/>
<polygon fill="#191970" stroke="#191970" points="170.6992,-73.9853 161.1959,-78.669 171.5458,-80.9339 170.6992,-73.9853"/>
</g>
<!-- Node41 -->
<g id="node5" class="node">
<title>Node41</title>
<g id="a_node5"><a xlink:href="classease4lmp_1_1bonded__atoms_1_1BondedAtoms.html#a0626868b2df32ce3567c4155baa68185" target="_top" xlink:title="This method gets an array of 4&#45;membered sequence of atom&#45;index representing impropers. ">
<polygon fill="#ffffff" stroke="#000000" points="197,-.5 197,-30.5 358,-30.5 358,-.5 197,-.5"/>
<text text-anchor="start" x="205" y="-18.5" font-family="Helvetica,sans-Serif" font-size="10.00" fill="#000000">ease4lmp.bonded_atoms.Bonded</text>
<text text-anchor="middle" x="277.5" y="-7.5" font-family="Helvetica,sans-Serif" font-size="10.00" fill="#000000">Atoms.get_bonded_impropers</text>
</a>
</g>
</g>
<!-- Node37&#45;&gt;Node41 -->
<g id="edge4" class="edge">
<title>Node37&#45;&gt;Node41</title>
<path fill="none" stroke="#191970" d="M124.1349,-69.4335C145.8559,-60.2219 172.6203,-49.2881 197,-40.5 206.4992,-37.0758 216.7259,-33.6813 226.5977,-30.5493"/>
<polygon fill="#191970" stroke="#191970" points="122.6709,-66.2528 114.8474,-73.3972 125.4187,-72.691 122.6709,-66.2528"/>
</g>
</g>
</svg>
