<?xml version="1.0" encoding="UTF-8" standalone="no"?>
<!DOCTYPE svg PUBLIC "-//W3C//DTD SVG 1.1//EN"
 "http://www.w3.org/Graphics/SVG/1.1/DTD/svg11.dtd">
<!-- Generated by graphviz version 2.40.1 (20161225.0304)
 -->
<!-- Title: ease4lmp.lammps_writer.LammpsWriter.print_max_angles_per_atom Pages: 1 -->
<svg width="376pt" height="39pt"
 viewBox="0.00 0.00 376.00 39.00" xmlns="http://www.w3.org/2000/svg" xmlns:xlink="http://www.w3.org/1999/xlink">
<g id="graph0" class="graph" transform="scale(1 1) rotate(0) translate(4 35)">
<title>ease4lmp.lammps_writer.LammpsWriter.print_max_angles_per_atom</title>
<polygon fill="#ffffff" stroke="transparent" points="-4,4 -4,-35 372,-35 372,4 -4,4"/>
<!-- Node30 -->
<g id="node1" class="node">
<title>Node30</title>
<polygon fill="#bfbfbf" stroke="#000000" points="0,-.5 0,-30.5 167,-30.5 167,-.5 0,-.5"/>
<text text-anchor="start" x="8" y="-18.5" font-family="Helvetica,sans-Serif" font-size="10.00" fill="#000000">ease4lmp.lammps_writer.Lammps</text>
<text text-anchor="middle" x="83.5" y="-7.5" font-family="Helvetica,sans-Serif" font-size="10.00" fill="#000000">Writer.print_max_angles_per_atom</text>
</g>
<!-- Node31 -->
<g id="node2" class="node">
<title>Node31</title>
<g id="a_node2"><a xlink:href="classease4lmp_1_1lammps__writer_1_1LammpsWriter.html#ac07e7377465b331f6ffd4bd01f023eb9" target="_top" xlink:title="ease4lmp.lammps_writer.Lammps\lWriter.print_maximum_per_atom">
<polygon fill="#ffffff" stroke="#000000" points="203,-.5 203,-30.5 368,-30.5 368,-.5 203,-.5"/>
<text text-anchor="start" x="211" y="-18.5" font-family="Helvetica,sans-Serif" font-size="10.00" fill="#000000">ease4lmp.lammps_writer.Lammps</text>
<text text-anchor="middle" x="285.5" y="-7.5" font-family="Helvetica,sans-Serif" font-size="10.00" fill="#000000">Writer.print_maximum_per_atom</text>
</a>
</g>
</g>
<!-- Node30&#45;&gt;Node31 -->
<g id="edge1" class="edge">
<title>Node30&#45;&gt;Node31</title>
<path fill="none" stroke="#191970" d="M167.1193,-15.5C175.6225,-15.5 184.2953,-15.5 192.8865,-15.5"/>
<polygon fill="#191970" stroke="#191970" points="192.9195,-19.0001 202.9194,-15.5 192.9194,-12.0001 192.9195,-19.0001"/>
</g>
</g>
</svg>
