<?xml version="1.0" encoding="UTF-8" standalone="no"?>
<!DOCTYPE svg PUBLIC "-//W3C//DTD SVG 1.1//EN"
 "http://www.w3.org/Graphics/SVG/1.1/DTD/svg11.dtd">
<!-- Generated by graphviz version 2.40.1 (20161225.0304)
 -->
<!-- Title: ease4lmp.lammps_data.LammpsTopology.set_types Pages: 1 -->
<svg width="366pt" height="100pt"
 viewBox="0.00 0.00 366.00 99.50" xmlns="http://www.w3.org/2000/svg" xmlns:xlink="http://www.w3.org/1999/xlink">
<g id="graph0" class="graph" transform="scale(1 1) rotate(0) translate(4 95.5)">
<title>ease4lmp.lammps_data.LammpsTopology.set_types</title>
<polygon fill="#ffffff" stroke="transparent" points="-4,4 -4,-95.5 362,-95.5 362,4 -4,4"/>
<!-- Node11 -->
<g id="node1" class="node">
<title>Node11</title>
<polygon fill="#bfbfbf" stroke="#000000" points="0,-27.5 0,-57.5 161,-57.5 161,-27.5 0,-27.5"/>
<text text-anchor="start" x="8" y="-45.5" font-family="Helvetica,sans-Serif" font-size="10.00" fill="#000000">ease4lmp.lammps_data.Lammps</text>
<text text-anchor="middle" x="80.5" y="-34.5" font-family="Helvetica,sans-Serif" font-size="10.00" fill="#000000">Topology.set_types</text>
</g>
<!-- Node12 -->
<g id="node2" class="node">
<title>Node12</title>
<g id="a_node2"><a xlink:href="classease4lmp_1_1lammps__data_1_1LammpsTopology.html#a484cd269e974b263a4185761d3ba6844" target="_top" xlink:title="[Arguments] ">
<polygon fill="#ffffff" stroke="#000000" points="197,-50 197,-91 358,-91 358,-50 197,-50"/>
<text text-anchor="start" x="205" y="-79" font-family="Helvetica,sans-Serif" font-size="10.00" fill="#000000">ease4lmp.lammps_data.Lammps</text>
<text text-anchor="start" x="205" y="-68" font-family="Helvetica,sans-Serif" font-size="10.00" fill="#000000">Topology._make_full_seq</text>
<text text-anchor="middle" x="277.5" y="-57" font-family="Helvetica,sans-Serif" font-size="10.00" fill="#000000">_to_type</text>
</a>
</g>
</g>
<!-- Node11&#45;&gt;Node12 -->
<g id="edge1" class="edge">
<title>Node11&#45;&gt;Node12</title>
<path fill="none" stroke="#191970" d="M161.1959,-53.9695C169.6733,-55.1744 178.3327,-56.4052 186.9115,-57.6245"/>
<polygon fill="#191970" stroke="#191970" points="186.5366,-61.1063 196.9296,-59.0484 187.5217,-54.1759 186.5366,-61.1063"/>
</g>
<!-- Node13 -->
<g id="node3" class="node">
<title>Node13</title>
<g id="a_node3"><a xlink:href="classease4lmp_1_1lammps__data_1_1LammpsTopology.html#ae5110ba012dc28a91e023c586b0078ef" target="_top" xlink:title="ease4lmp.lammps_data.Lammps\lTopology._set_data">
<polygon fill="#ffffff" stroke="#000000" points="197,-.5 197,-30.5 358,-30.5 358,-.5 197,-.5"/>
<text text-anchor="start" x="205" y="-18.5" font-family="Helvetica,sans-Serif" font-size="10.00" fill="#000000">ease4lmp.lammps_data.Lammps</text>
<text text-anchor="middle" x="277.5" y="-7.5" font-family="Helvetica,sans-Serif" font-size="10.00" fill="#000000">Topology._set_data</text>
</a>
</g>
</g>
<!-- Node11&#45;&gt;Node13 -->
<g id="edge2" class="edge">
<title>Node11&#45;&gt;Node13</title>
<path fill="none" stroke="#191970" d="M161.1959,-31.4402C169.6733,-30.2783 178.3327,-29.0915 186.9115,-27.9157"/>
<polygon fill="#191970" stroke="#191970" points="187.4975,-31.3682 196.9296,-26.5426 186.547,-24.433 187.4975,-31.3682"/>
</g>
</g>
</svg>
