<?xml version="1.0" encoding="UTF-8" standalone="no"?>
<!DOCTYPE svg PUBLIC "-//W3C//DTD SVG 1.1//EN"
 "http://www.w3.org/Graphics/SVG/1.1/DTD/svg11.dtd">
<!-- Generated by graphviz version 2.40.1 (20161225.0304)
 -->
<!-- Title: ease4lmp.lammps_writer.LammpsWriter.get_required_datanames Pages: 1 -->
<svg width="374pt" height="50pt"
 viewBox="0.00 0.00 374.00 50.00" xmlns="http://www.w3.org/2000/svg" xmlns:xlink="http://www.w3.org/1999/xlink">
<g id="graph0" class="graph" transform="scale(1 1) rotate(0) translate(4 46)">
<title>ease4lmp.lammps_writer.LammpsWriter.get_required_datanames</title>
<polygon fill="#ffffff" stroke="transparent" points="-4,4 -4,-46 370,-46 370,4 -4,4"/>
<!-- Node19 -->
<g id="node1" class="node">
<title>Node19</title>
<polygon fill="#bfbfbf" stroke="#000000" points="0,-6 0,-36 165,-36 165,-6 0,-6"/>
<text text-anchor="start" x="8" y="-24" font-family="Helvetica,sans-Serif" font-size="10.00" fill="#000000">ease4lmp.lammps_writer.Lammps</text>
<text text-anchor="middle" x="82.5" y="-13" font-family="Helvetica,sans-Serif" font-size="10.00" fill="#000000">Writer.get_required_datanames</text>
</g>
<!-- Node20 -->
<g id="node2" class="node">
<title>Node20</title>
<g id="a_node2"><a xlink:href="classease4lmp_1_1lammps__writer_1_1LammpsWriter.html#a84e790e7bd887d4193d72072652e2db9" target="_top" xlink:title="ease4lmp.lammps_writer.Lammps\lWriter.get_required_datanames\l_for_molecule">
<polygon fill="#ffffff" stroke="#000000" points="201,-.5 201,-41.5 366,-41.5 366,-.5 201,-.5"/>
<text text-anchor="start" x="209" y="-29.5" font-family="Helvetica,sans-Serif" font-size="10.00" fill="#000000">ease4lmp.lammps_writer.Lammps</text>
<text text-anchor="start" x="209" y="-18.5" font-family="Helvetica,sans-Serif" font-size="10.00" fill="#000000">Writer.get_required_datanames</text>
<text text-anchor="middle" x="283.5" y="-7.5" font-family="Helvetica,sans-Serif" font-size="10.00" fill="#000000">_for_molecule</text>
</a>
</g>
</g>
<!-- Node19&#45;&gt;Node20 -->
<g id="edge1" class="edge">
<title>Node19&#45;&gt;Node20</title>
<path fill="none" stroke="#191970" d="M175.1483,-21C183.73,-21 192.3885,-21 200.8715,-21"/>
<polygon fill="#191970" stroke="#191970" points="175.1246,-17.5001 165.1245,-21 175.1245,-24.5001 175.1246,-17.5001"/>
</g>
</g>
</svg>
