<?xml version="1.0" encoding="UTF-8" standalone="no"?>
<!DOCTYPE svg PUBLIC "-//W3C//DTD SVG 1.1//EN"
 "http://www.w3.org/Graphics/SVG/1.1/DTD/svg11.dtd">
<!-- Generated by graphviz version 2.40.1 (20161225.0304)
 -->
<!-- Title: ease4lmp.lammps_writer.LammpsWriter.set_topology_types Pages: 1 -->
<svg width="374pt" height="57pt"
 viewBox="0.00 0.00 374.00 57.00" xmlns="http://www.w3.org/2000/svg" xmlns:xlink="http://www.w3.org/1999/xlink">
<g id="graph0" class="graph" transform="scale(1 1) rotate(0) translate(4 53)">
<title>ease4lmp.lammps_writer.LammpsWriter.set_topology_types</title>
<polygon fill="#ffffff" stroke="transparent" points="-4,4 -4,-53 370,-53 370,4 -4,4"/>
<!-- Node54 -->
<g id="node1" class="node">
<title>Node54</title>
<polygon fill="#bfbfbf" stroke="#000000" points="0,-.5 0,-30.5 165,-30.5 165,-.5 0,-.5"/>
<text text-anchor="start" x="8" y="-18.5" font-family="Helvetica,sans-Serif" font-size="10.00" fill="#000000">ease4lmp.lammps_writer.Lammps</text>
<text text-anchor="middle" x="82.5" y="-7.5" font-family="Helvetica,sans-Serif" font-size="10.00" fill="#000000">Writer.set_topology_types</text>
</g>
<!-- Node54&#45;&gt;Node54 -->
<g id="edge1" class="edge">
<title>Node54&#45;&gt;Node54</title>
<path fill="none" stroke="#191970" d="M47.6459,-30.659C39.2413,-40.0566 50.8594,-49 82.5,-49 101.781,-49 113.6269,-45.679 118.0376,-40.9579"/>
<polygon fill="#191970" stroke="#191970" points="121.5087,-40.4053 117.3541,-30.659 114.5241,-40.8688 121.5087,-40.4053"/>
</g>
<!-- Node55 -->
<g id="node2" class="node">
<title>Node55</title>
<g id="a_node2"><a xlink:href="classease4lmp_1_1lammps__writer_1_1LammpsWriter.html#ae5ce41137c13685ac15eef80bd8956c0" target="_top" xlink:title="This method write Lammps DATA file. ">
<polygon fill="#ffffff" stroke="#000000" points="201,-.5 201,-30.5 366,-30.5 366,-.5 201,-.5"/>
<text text-anchor="start" x="209" y="-18.5" font-family="Helvetica,sans-Serif" font-size="10.00" fill="#000000">ease4lmp.lammps_writer.Lammps</text>
<text text-anchor="middle" x="283.5" y="-7.5" font-family="Helvetica,sans-Serif" font-size="10.00" fill="#000000">Writer.write_lammps_data</text>
</a>
</g>
</g>
<!-- Node54&#45;&gt;Node55 -->
<g id="edge2" class="edge">
<title>Node54&#45;&gt;Node55</title>
<path fill="none" stroke="#191970" d="M165.1245,-15.5C173.6075,-15.5 182.266,-15.5 190.8477,-15.5"/>
<polygon fill="#191970" stroke="#191970" points="190.8715,-19.0001 200.8715,-15.5 190.8715,-12.0001 190.8715,-19.0001"/>
</g>
</g>
</svg>
