<?xml version="1.0" encoding="UTF-8" standalone="no"?>
<!DOCTYPE svg PUBLIC "-//W3C//DTD SVG 1.1//EN"
 "http://www.w3.org/Graphics/SVG/1.1/DTD/svg11.dtd">
<!-- Generated by graphviz version 2.40.1 (20161225.0304)
 -->
<!-- Title: ease4lmp.lammps_writer.LammpsWriter.get_maximum_per_atom Pages: 1 -->
<svg width="376pt" height="149pt"
 viewBox="0.00 0.00 376.00 148.50" xmlns="http://www.w3.org/2000/svg" xmlns:xlink="http://www.w3.org/1999/xlink">
<g id="graph0" class="graph" transform="scale(1 1) rotate(0) translate(4 144.5)">
<title>ease4lmp.lammps_writer.LammpsWriter.get_maximum_per_atom</title>
<polygon fill="#ffffff" stroke="transparent" points="-4,4 -4,-144.5 372,-144.5 372,4 -4,4"/>
<!-- Node2 -->
<g id="node1" class="node">
<title>Node2</title>
<polygon fill="#bfbfbf" stroke="#000000" points="0,-61 0,-91 165,-91 165,-61 0,-61"/>
<text text-anchor="start" x="8" y="-79" font-family="Helvetica,sans-Serif" font-size="10.00" fill="#000000">ease4lmp.lammps_writer.Lammps</text>
<text text-anchor="middle" x="82.5" y="-68" font-family="Helvetica,sans-Serif" font-size="10.00" fill="#000000">Writer.get_maximum_per_atom</text>
</g>
<!-- Node2&#45;&gt;Node2 -->
<g id="edge4" class="edge">
<title>Node2&#45;&gt;Node2</title>
<path fill="none" stroke="#191970" d="M47.2973,-91.159C38.8087,-100.5566 50.543,-109.5 82.5,-109.5 101.9738,-109.5 113.9381,-106.179 118.393,-101.4579"/>
<polygon fill="#191970" stroke="#191970" points="121.8637,-100.9025 117.7027,-91.159 114.8794,-101.3707 121.8637,-100.9025"/>
</g>
<!-- Node3 -->
<g id="node2" class="node">
<title>Node3</title>
<g id="a_node2"><a xlink:href="classease4lmp_1_1lammps__data_1_1LammpsTopology.html#a8c22477fe441bedeed1a983b1cf47fa3" target="_top" xlink:title="ease4lmp.lammps_data.Lammps\lTopology.get_maximum_per_atom">
<polygon fill="#ffffff" stroke="#000000" points="201,-110 201,-140 368,-140 368,-110 201,-110"/>
<text text-anchor="start" x="209" y="-128" font-family="Helvetica,sans-Serif" font-size="10.00" fill="#000000">ease4lmp.lammps_data.Lammps</text>
<text text-anchor="middle" x="284.5" y="-117" font-family="Helvetica,sans-Serif" font-size="10.00" fill="#000000">Topology.get_maximum_per_atom</text>
</a>
</g>
</g>
<!-- Node2&#45;&gt;Node3 -->
<g id="edge1" class="edge">
<title>Node2&#45;&gt;Node3</title>
<path fill="none" stroke="#191970" d="M144.4794,-91.0346C166.0987,-96.2789 190.5365,-102.2069 212.8747,-107.6255"/>
<polygon fill="#191970" stroke="#191970" points="212.0945,-111.0377 222.6378,-109.9938 213.7447,-104.235 212.0945,-111.0377"/>
</g>
<!-- Node4 -->
<g id="node3" class="node">
<title>Node4</title>
<g id="a_node3"><a xlink:href="classease4lmp_1_1lammps__data_1_1LammpsBonds.html#adf657c777be2c98b7b28138d11afc305" target="_top" xlink:title="ease4lmp.lammps_data.Lammps\lBonds.get_maximum_per_atom">
<polygon fill="#ffffff" stroke="#000000" points="204,-61 204,-91 365,-91 365,-61 204,-61"/>
<text text-anchor="start" x="212" y="-79" font-family="Helvetica,sans-Serif" font-size="10.00" fill="#000000">ease4lmp.lammps_data.Lammps</text>
<text text-anchor="middle" x="284.5" y="-68" font-family="Helvetica,sans-Serif" font-size="10.00" fill="#000000">Bonds.get_maximum_per_atom</text>
</a>
</g>
</g>
<!-- Node2&#45;&gt;Node4 -->
<g id="edge2" class="edge">
<title>Node2&#45;&gt;Node4</title>
<path fill="none" stroke="#191970" d="M165.244,-76C174.6056,-76 184.1837,-76 193.6419,-76"/>
<polygon fill="#191970" stroke="#191970" points="193.8422,-79.5001 203.8422,-76 193.8422,-72.5001 193.8422,-79.5001"/>
</g>
<!-- Node5 -->
<g id="node4" class="node">
<title>Node5</title>
<g id="a_node4"><a xlink:href="classease4lmp_1_1lammps__data_1_1LammpsSpecialBonds.html#ad74fe26d7567d898bef75ecd09839a1d" target="_top" xlink:title="ease4lmp.lammps_data.Lammps\lSpecialBonds.get_maximum\l_per_atom">
<polygon fill="#ffffff" stroke="#000000" points="204,-.5 204,-41.5 365,-41.5 365,-.5 204,-.5"/>
<text text-anchor="start" x="212" y="-29.5" font-family="Helvetica,sans-Serif" font-size="10.00" fill="#000000">ease4lmp.lammps_data.Lammps</text>
<text text-anchor="start" x="212" y="-18.5" font-family="Helvetica,sans-Serif" font-size="10.00" fill="#000000">SpecialBonds.get_maximum</text>
<text text-anchor="middle" x="284.5" y="-7.5" font-family="Helvetica,sans-Serif" font-size="10.00" fill="#000000">_per_atom</text>
</a>
</g>
</g>
<!-- Node2&#45;&gt;Node5 -->
<g id="edge3" class="edge">
<title>Node2&#45;&gt;Node5</title>
<path fill="none" stroke="#191970" d="M137.6974,-60.971C156.6558,-55.8091 178.3459,-49.9033 199.1309,-44.2441"/>
<polygon fill="#191970" stroke="#191970" points="200.1943,-47.582 208.9236,-41.5777 198.3553,-40.8279 200.1943,-47.582"/>
</g>
</g>
</svg>
