<?xml version="1.0" encoding="UTF-8" standalone="no"?>
<!DOCTYPE svg PUBLIC "-//W3C//DTD SVG 1.1//EN"
 "http://www.w3.org/Graphics/SVG/1.1/DTD/svg11.dtd">
<!-- Generated by graphviz version 2.40.1 (20161225.0304)
 -->
<!-- Title: ease4lmp.lammps_writer.ExtendedPrism Pages: 1 -->
<svg width="177pt" height="171pt"
 viewBox="0.00 0.00 177.00 171.00" xmlns="http://www.w3.org/2000/svg" xmlns:xlink="http://www.w3.org/1999/xlink">
<g id="graph0" class="graph" transform="scale(1 1) rotate(0) translate(4 167)">
<title>ease4lmp.lammps_writer.ExtendedPrism</title>
<polygon fill="#ffffff" stroke="transparent" points="-4,4 -4,-167 173,-167 173,4 -4,4"/>
<!-- Node2 -->
<g id="node1" class="node">
<title>Node2</title>
<polygon fill="#bfbfbf" stroke="#000000" points="0,-.5 0,-68.5 169,-68.5 169,-.5 0,-.5"/>
<text text-anchor="start" x="8" y="-56.5" font-family="Helvetica,sans-Serif" font-size="10.00" fill="#000000">ease4lmp.lammps_writer.Extended</text>
<text text-anchor="middle" x="84.5" y="-45.5" font-family="Helvetica,sans-Serif" font-size="10.00" fill="#000000">Prism</text>
<polyline fill="none" stroke="#000000" points="0,-38.5 169,-38.5 "/>
<text text-anchor="middle" x="84.5" y="-26.5" font-family="Helvetica,sans-Serif" font-size="10.00" fill="#000000"> </text>
<polyline fill="none" stroke="#000000" points="0,-19.5 169,-19.5 "/>
<text text-anchor="start" x="8" y="-7.5" font-family="Helvetica,sans-Serif" font-size="10.00" fill="#000000">+ transform_to_lammps()</text>
</g>
<!-- Node3 -->
<g id="node2" class="node">
<title>Node3</title>
<polygon fill="#ffffff" stroke="#bfbfbf" points="63.5,-105.5 63.5,-162.5 105.5,-162.5 105.5,-105.5 63.5,-105.5"/>
<text text-anchor="middle" x="84.5" y="-150.5" font-family="Helvetica,sans-Serif" font-size="10.00" fill="#000000">Prism</text>
<polyline fill="none" stroke="#bfbfbf" points="63.5,-143.5 105.5,-143.5 "/>
<text text-anchor="middle" x="84.5" y="-131.5" font-family="Helvetica,sans-Serif" font-size="10.00" fill="#000000"> </text>
<polyline fill="none" stroke="#bfbfbf" points="63.5,-124.5 105.5,-124.5 "/>
<text text-anchor="middle" x="84.5" y="-112.5" font-family="Helvetica,sans-Serif" font-size="10.00" fill="#000000"> </text>
</g>
<!-- Node3&#45;&gt;Node2 -->
<g id="edge1" class="edge">
<title>Node3&#45;&gt;Node2</title>
<path fill="none" stroke="#191970" d="M84.5,-95.4268C84.5,-86.6025 84.5,-77.2834 84.5,-68.6596"/>
<polygon fill="none" stroke="#191970" points="81.0001,-95.4873 84.5,-105.4873 88.0001,-95.4873 81.0001,-95.4873"/>
</g>
</g>
</svg>
