<?xml version="1.0" encoding="UTF-8" standalone="no"?>
<!DOCTYPE svg PUBLIC "-//W3C//DTD SVG 1.1//EN"
 "http://www.w3.org/Graphics/SVG/1.1/DTD/svg11.dtd">
<!-- Generated by graphviz version 2.40.1 (20161225.0304)
 -->
<!-- Title: ease4lmp.lammps_writer.LammpsWriter.get_sequence_patterns Pages: 1 -->
<svg width="370pt" height="57pt"
 viewBox="0.00 0.00 370.00 57.00" xmlns="http://www.w3.org/2000/svg" xmlns:xlink="http://www.w3.org/1999/xlink">
<g id="graph0" class="graph" transform="scale(1 1) rotate(0) translate(4 53)">
<title>ease4lmp.lammps_writer.LammpsWriter.get_sequence_patterns</title>
<polygon fill="#ffffff" stroke="transparent" points="-4,4 -4,-53 366,-53 366,4 -4,4"/>
<!-- Node7 -->
<g id="node1" class="node">
<title>Node7</title>
<polygon fill="#bfbfbf" stroke="#000000" points="0,-.5 0,-30.5 165,-30.5 165,-.5 0,-.5"/>
<text text-anchor="start" x="8" y="-18.5" font-family="Helvetica,sans-Serif" font-size="10.00" fill="#000000">ease4lmp.lammps_writer.Lammps</text>
<text text-anchor="middle" x="82.5" y="-7.5" font-family="Helvetica,sans-Serif" font-size="10.00" fill="#000000">Writer.get_sequence_patterns</text>
</g>
<!-- Node7&#45;&gt;Node7 -->
<g id="edge2" class="edge">
<title>Node7&#45;&gt;Node7</title>
<path fill="none" stroke="#191970" d="M47.9944,-30.659C39.6739,-40.0566 51.1758,-49 82.5,-49 101.5882,-49 113.3156,-45.679 117.6822,-40.9579"/>
<polygon fill="#191970" stroke="#191970" points="121.1537,-40.408 117.0056,-30.659 114.1688,-40.867 121.1537,-40.408"/>
</g>
<!-- Node8 -->
<g id="node2" class="node">
<title>Node8</title>
<g id="a_node2"><a xlink:href="classease4lmp_1_1lammps__data_1_1LammpsTopology.html#a3cb100afa6a270d02da6538a89a0aee8" target="_top" xlink:title="ease4lmp.lammps_data.Lammps\lTopology.get_sequence_patterns">
<polygon fill="#ffffff" stroke="#000000" points="201,-.5 201,-30.5 362,-30.5 362,-.5 201,-.5"/>
<text text-anchor="start" x="209" y="-18.5" font-family="Helvetica,sans-Serif" font-size="10.00" fill="#000000">ease4lmp.lammps_data.Lammps</text>
<text text-anchor="middle" x="281.5" y="-7.5" font-family="Helvetica,sans-Serif" font-size="10.00" fill="#000000">Topology.get_sequence_patterns</text>
</a>
</g>
</g>
<!-- Node7&#45;&gt;Node8 -->
<g id="edge1" class="edge">
<title>Node7&#45;&gt;Node8</title>
<path fill="none" stroke="#191970" d="M165.1651,-15.5C173.5162,-15.5 182.0302,-15.5 190.4626,-15.5"/>
<polygon fill="#191970" stroke="#191970" points="190.6914,-19.0001 200.6913,-15.5 190.6913,-12.0001 190.6914,-19.0001"/>
</g>
</g>
</svg>
