<?xml version="1.0" encoding="UTF-8" standalone="no"?>
<!DOCTYPE svg PUBLIC "-//W3C//DTD SVG 1.1//EN"
 "http://www.w3.org/Graphics/SVG/1.1/DTD/svg11.dtd">
<!-- Generated by graphviz version 2.40.1 (20161225.0304)
 -->
<!-- Title: Graphical Class Hierarchy Pages: 1 -->
<svg width="366pt" height="186pt"
 viewBox="0.00 0.00 366.00 186.00" xmlns="http://www.w3.org/2000/svg" xmlns:xlink="http://www.w3.org/1999/xlink">
<g id="graph0" class="graph" transform="scale(1 1) rotate(0) translate(4 182)">
<title>Graphical Class Hierarchy</title>
<polygon fill="#ffffff" stroke="transparent" points="-4,4 -4,-182 362,-182 362,4 -4,4"/>
<!-- Node0 -->
<g id="node1" class="node">
<title>Node0</title>
<g id="a_node1"><a xlink:href="classease4lmp_1_1lammps__data_1_1LammpsTopology.html" target="_top" xlink:title="This class corresponds to a section of topology (&#39;Bonds&#39;, &#39;Angles&#39;, &#39;Dihedrals&#39;, &#39;Impropers&#39;) in Lamm...">
<polygon fill="#ffffff" stroke="#000000" points="0,-73.5 0,-103.5 161,-103.5 161,-73.5 0,-73.5"/>
<text text-anchor="start" x="8" y="-91.5" font-family="Helvetica,sans-Serif" font-size="10.00" fill="#000000">ease4lmp.lammps_data.Lammps</text>
<text text-anchor="middle" x="80.5" y="-80.5" font-family="Helvetica,sans-Serif" font-size="10.00" fill="#000000">Topology</text>
</a>
</g>
</g>
<!-- Node1 -->
<g id="node2" class="node">
<title>Node1</title>
<g id="a_node2"><a xlink:href="classease4lmp_1_1lammps__data_1_1LammpsAngles.html" target="_top" xlink:title="This class corresponds to &#39;Angles&#39; section in Lammps file. ">
<polygon fill="#ffffff" stroke="#000000" points="197,-147.5 197,-177.5 358,-177.5 358,-147.5 197,-147.5"/>
<text text-anchor="start" x="205" y="-165.5" font-family="Helvetica,sans-Serif" font-size="10.00" fill="#000000">ease4lmp.lammps_data.Lammps</text>
<text text-anchor="middle" x="277.5" y="-154.5" font-family="Helvetica,sans-Serif" font-size="10.00" fill="#000000">Angles</text>
</a>
</g>
</g>
<!-- Node0&#45;&gt;Node1 -->
<g id="edge1" class="edge">
<title>Node0&#45;&gt;Node1</title>
<path fill="none" stroke="#191970" d="M122.1167,-107.7499C144.1331,-117.5784 171.7635,-129.3572 197,-138.5 205.6382,-141.6295 214.9001,-144.6722 223.9555,-147.4813"/>
<polygon fill="#191970" stroke="#191970" points="123.2929,-104.4412 112.7374,-103.5296 120.4206,-110.8248 123.2929,-104.4412"/>
</g>
<!-- Node2 -->
<g id="node3" class="node">
<title>Node2</title>
<g id="a_node3"><a xlink:href="classease4lmp_1_1lammps__data_1_1LammpsBonds.html" target="_top" xlink:title="This class corresponds to &#39;Bonds&#39; section in Lammps file. ">
<polygon fill="#ffffff" stroke="#000000" points="197,-98.5 197,-128.5 358,-128.5 358,-98.5 197,-98.5"/>
<text text-anchor="start" x="205" y="-116.5" font-family="Helvetica,sans-Serif" font-size="10.00" fill="#000000">ease4lmp.lammps_data.Lammps</text>
<text text-anchor="middle" x="277.5" y="-105.5" font-family="Helvetica,sans-Serif" font-size="10.00" fill="#000000">Bonds</text>
</a>
</g>
</g>
<!-- Node0&#45;&gt;Node2 -->
<g id="edge2" class="edge">
<title>Node0&#45;&gt;Node2</title>
<path fill="none" stroke="#191970" d="M171.2155,-100.0121C179.7951,-101.1009 188.454,-102.1998 196.9296,-103.2753"/>
<polygon fill="#191970" stroke="#191970" points="171.5569,-96.5275 161.1959,-98.7406 170.6756,-103.4718 171.5569,-96.5275"/>
</g>
<!-- Node3 -->
<g id="node4" class="node">
<title>Node3</title>
<g id="a_node4"><a xlink:href="classease4lmp_1_1lammps__data_1_1LammpsDihedrals.html" target="_top" xlink:title="This class corresponds to &#39;Dihedrals&#39; section in Lammps file. ">
<polygon fill="#ffffff" stroke="#000000" points="197,-49.5 197,-79.5 358,-79.5 358,-49.5 197,-49.5"/>
<text text-anchor="start" x="205" y="-67.5" font-family="Helvetica,sans-Serif" font-size="10.00" fill="#000000">ease4lmp.lammps_data.Lammps</text>
<text text-anchor="middle" x="277.5" y="-56.5" font-family="Helvetica,sans-Serif" font-size="10.00" fill="#000000">Dihedrals</text>
</a>
</g>
</g>
<!-- Node0&#45;&gt;Node3 -->
<g id="edge3" class="edge">
<title>Node0&#45;&gt;Node3</title>
<path fill="none" stroke="#191970" d="M171.2155,-77.4484C179.7951,-76.4031 188.454,-75.3482 196.9296,-74.3157"/>
<polygon fill="#191970" stroke="#191970" points="170.6992,-73.9853 161.1959,-78.669 171.5458,-80.9339 170.6992,-73.9853"/>
</g>
<!-- Node4 -->
<g id="node5" class="node">
<title>Node4</title>
<g id="a_node5"><a xlink:href="classease4lmp_1_1lammps__data_1_1LammpsImpropers.html" target="_top" xlink:title="This class corresponds to &#39;Impropers&#39; section in Lammps file. ">
<polygon fill="#ffffff" stroke="#000000" points="197,-.5 197,-30.5 358,-30.5 358,-.5 197,-.5"/>
<text text-anchor="start" x="205" y="-18.5" font-family="Helvetica,sans-Serif" font-size="10.00" fill="#000000">ease4lmp.lammps_data.Lammps</text>
<text text-anchor="middle" x="277.5" y="-7.5" font-family="Helvetica,sans-Serif" font-size="10.00" fill="#000000">Impropers</text>
</a>
</g>
</g>
<!-- Node0&#45;&gt;Node4 -->
<g id="edge4" class="edge">
<title>Node0&#45;&gt;Node4</title>
<path fill="none" stroke="#191970" d="M124.1349,-69.4335C145.8559,-60.2219 172.6203,-49.2881 197,-40.5 206.4992,-37.0758 216.7259,-33.6813 226.5977,-30.5493"/>
<polygon fill="#191970" stroke="#191970" points="122.6709,-66.2528 114.8474,-73.3972 125.4187,-72.691 122.6709,-66.2528"/>
</g>
</g>
</svg>
